<svg xmlns="http://www.w3.org/2000/svg" xmlns:xlink="http://www.w3.org/1999/xlink" viewBox="0 0 604.83 602.92"><defs><style>.cls-1,.cls-53,.cls-55{fill:none;}.cls-2,.cls-4,.cls-43,.cls-45,.cls-48{fill:#fff;}.cls-3{fill:#20212a;}.cls-4{font-size:12px;}.cls-4,.cls-54,.cls-55{stroke:#fff;}.cls-4,.cls-53,.cls-54,.cls-55{stroke-miterlimit:10;}.cls-4,.cls-45,.cls-48{font-family:MyriadPro-Regular, Myriad Pro;}.cls-5{letter-spacing:0.01em;}.cls-6{letter-spacing:0em;}.cls-7{letter-spacing:0.02em;}.cls-8{letter-spacing:0em;}.cls-9{letter-spacing:0em;}.cls-10{letter-spacing:0.01em;}.cls-11{letter-spacing:-0.02em;}.cls-12{letter-spacing:-0.01em;}.cls-13{letter-spacing:-0.01em;}.cls-14{clip-path:url(#clip-path);}.cls-15{clip-path:url(#clip-path-2);}.cls-16,.cls-25,.cls-26,.cls-54{fill:#ff4a3b;}.cls-17{clip-path:url(#clip-path-4);}.cls-18{clip-path:url(#clip-path-5);}.cls-19{clip-path:url(#clip-path-6);}.cls-20{clip-path:url(#clip-path-7);}.cls-21{fill:#ede6e2;}.cls-22{clip-path:url(#clip-path-8);}.cls-23{clip-path:url(#clip-path-9);}.cls-24{clip-path:url(#clip-path-10);}.cls-25{font-size:46.5px;}.cls-25,.cls-26{font-family:Aleo-Regular, Aleo Regular;}.cls-26{font-size:46.99px;}.cls-27{clip-path:url(#clip-path-12);}.cls-28{clip-path:url(#clip-path-13);}.cls-29{clip-path:url(#clip-path-14);}.cls-30{clip-path:url(#clip-path-15);}.cls-31{clip-path:url(#clip-path-16);}.cls-32{clip-path:url(#clip-path-17);}.cls-33{fill:#abdff0;}.cls-34{fill:#e1d2e7;}.cls-35{fill:#f0d7e8;}.cls-36{fill:#f7a9b8;}.cls-37{fill:#eae5e1;}.cls-38{fill:#5ecdf5;}.cls-39{fill:#ebe6e1;}.cls-40{fill:#ebe5e1;}.cls-41{fill:#c0e7f5;}.cls-42{fill:#eac7df;}.cls-43{font-size:39px;font-family:CourierNewPSMT, Courier New;letter-spacing:-0.08em;}.cls-44{letter-spacing:-0.08em;}.cls-45{font-size:21px;}.cls-46{letter-spacing:-0.06em;}.cls-47{letter-spacing:-0.04em;}.cls-48{font-size:16px;}.cls-49{letter-spacing:-0.08em;}.cls-50{letter-spacing:0.04em;}.cls-51{letter-spacing:0em;}.cls-52{letter-spacing:-0.01em;}.cls-53{stroke:#abdff0;stroke-width:2px;}.cls-56{fill:#ef4d3f;}.cls-57{fill:#eae5e0;}</style><clipPath id="clip-path"><rect class="cls-1" x="3.33" y="1.67" width="600" height="600"/></clipPath><clipPath id="clip-path-2"><rect class="cls-1" x="3.33" y="1.67" width="600" height="600.75"/></clipPath><clipPath id="clip-path-4"><rect class="cls-1" x="11.58" y="10.2" width="288" height="583.5"/></clipPath><clipPath id="clip-path-5"><rect class="cls-1" x="306.9" y="10.22" width="288" height="287.25"/></clipPath><clipPath id="clip-path-6"><rect class="cls-1" x="306.9" y="305.41" width="288" height="288"/></clipPath><clipPath id="clip-path-7"><rect class="cls-1" x="480.79" y="83.9" width="75.75" height="142.5"/></clipPath><clipPath id="clip-path-8"><rect class="cls-1" x="341.47" y="83.9" width="99" height="141"/></clipPath><clipPath id="clip-path-9"><rect class="cls-1" x="450.74" y="388.76" width="118.99" height="122.25"/></clipPath><clipPath id="clip-path-10"><rect class="cls-1" x="329.75" y="388.76" width="101.25" height="121.5"/></clipPath><clipPath id="clip-path-12"><rect class="cls-1" x="132.52" y="39.25" width="45.75" height="49.33"/></clipPath><clipPath id="clip-path-13"><rect class="cls-1" x="100.38" y="48.51" width="27.65" height="30.75"/></clipPath><clipPath id="clip-path-14"><rect class="cls-1" x="182.08" y="48.51" width="27.65" height="30.75"/></clipPath><clipPath id="clip-path-15"><rect class="cls-1" x="133.13" y="514.86" width="45.75" height="49.33"/></clipPath><clipPath id="clip-path-16"><rect class="cls-1" x="100.99" y="524.12" width="27.65" height="30.75"/></clipPath><clipPath id="clip-path-17"><rect class="cls-1" x="182.69" y="524.12" width="27.65" height="30.75"/></clipPath></defs><title>holiday1</title><g id="first_artboard" data-name="first artboard"><g id="Layer_1" data-name="Layer 1"><ellipse class="cls-2" cx="488.83" cy="202.17" rx="2.5" ry="5.5"/><rect class="cls-3" x="56.33" y="163.67" width="164" height="26"/><text class="cls-4" transform="translate(66.33 172.19)"><tspan class="cls-5">w</tspan><tspan class="cls-6" x="8.98" y="0">w</tspan><tspan x="17.76" y="0">a</tspan><tspan class="cls-7" x="23.54" y="0">k</tspan><tspan x="29.38" y="0">ing Up Ch</tspan><tspan class="cls-8" x="78.85" y="0">r</tspan><tspan class="cls-9" x="82.82" y="0">istmas </tspan><tspan class="cls-10" x="117.44" y="0">M</tspan><tspan x="127.16" y="0">o</tspan><tspan class="cls-8" x="133.75" y="0">r</tspan><tspan x="137.72" y="0">ning</tspan><tspan class="cls-11" x="0" y="14.4">W</tspan><tspan x="9.96" y="14.4">ith the sis</tspan><tspan class="cls-12" x="57.44" y="14.4">t</tspan><tspan x="61.34" y="14.4">ers </tspan><tspan class="cls-13" x="78.58" y="14.4">y</tspan><tspan x="84.11" y="14.4">ou ne</tspan><tspan class="cls-13" x="112.52" y="14.4">v</tspan><tspan x="118.17" y="14.4">er had</tspan></text></g><g id="blocked_out_background" data-name="blocked out background"><g id="Layer_9" data-name="Layer 9"><g class="cls-14"><g class="cls-15"><rect class="cls-2" x="3.33" y="1.67" width="600" height="1200.75"/></g><g class="cls-14"><rect class="cls-16" x="3.33" y="1.67" width="600" height="600"/></g><g class="cls-17"><rect class="cls-3" x="11.58" y="10.2" width="288" height="583.5"/></g><g class="cls-18"><rect class="cls-3" x="306.9" y="10.22" width="288" height="287.25"/></g><g class="cls-19"><rect class="cls-3" x="306.9" y="305.41" width="288" height="288"/></g><g class="cls-20"><path class="cls-16" d="M556.93,138.11V123.18A40.6,40.6,0,0,0,555.4,112a53.15,53.15,0,0,1-17,22.35V153.2a46.24,46.24,0,0,0,14.13-10A61.89,61.89,0,0,0,556.93,138.11Z"/><path class="cls-16" d="M548.33,98.22a37.55,37.55,0,0,0-23.46-13.66,52.75,52.75,0,0,1,3.88,20.74,19.66,19.66,0,0,1,3.92,3.14,21,21,0,0,1,5.49,11.4A45.92,45.92,0,0,0,547,103.31C547.56,101.57,548,99.83,548.33,98.22Z"/><path class="cls-16" d="M483.3,108a40.7,40.7,0,0,0-2.87,15.13,9.27,9.27,0,0,0,18.53,0,22.22,22.22,0,0,1,1.3-7.5,46,46,0,0,0-16.78-7.6A.38.38,0,0,0,483.3,108Z"/><path class="cls-16" d="M517.91,102.58A45,45,0,0,0,513,84.49a37.52,37.52,0,0,0-24.05,13.84,55.58,55.58,0,0,1,17.52,8.47A19.24,19.24,0,0,1,517.91,102.58Z"/><path class="cls-16" d="M553.89,223.8c-.77.55-1.57,1-2.34,1.57A10.2,10.2,0,0,0,553.89,223.8Z"/><path class="cls-16" d="M556.93,173.07V153.86a55,55,0,0,1-18.53,10.88v21.72a45.3,45.3,0,0,0,16.23-10.91C555.43,174.75,556.2,173.91,556.93,173.07Z"/><path class="cls-16" d="M556.93,206.54V188.06a53.57,53.57,0,0,1-18.53,9.8V217a9.15,9.15,0,0,0,.42,2.79,45.33,45.33,0,0,0,15.81-10.74C555.43,208.21,556.2,207.38,556.93,206.54Z"/><path class="cls-21" d="M506.45,106.8a55.58,55.58,0,0,0-17.52-8.47A39.06,39.06,0,0,0,483.3,108c.07,0,.11,0,.18,0a45.81,45.81,0,0,1,16.78,7.6,20.3,20.3,0,0,1,4.44-7.21A14.38,14.38,0,0,1,506.45,106.8Z"/><path class="cls-21" d="M524.87,84.56a39.66,39.66,0,0,0-6.19-.49,38.14,38.14,0,0,0-5.7.42,45,45,0,0,1,4.93,18.09l.77,0a19.53,19.53,0,0,1,10.07,2.75A54,54,0,0,0,524.87,84.56Z"/><path class="cls-21" d="M555.4,112a39.35,39.35,0,0,0-7.07-13.81c-.35,1.64-.77,3.35-1.29,5.13a45.54,45.54,0,0,1-8.88,16.52,21.57,21.57,0,0,1,.24,3.35v11.15A53.37,53.37,0,0,0,555.4,112Z"/><path class="cls-21" d="M556.93,138.11a55,55,0,0,1-4.4,5,46.24,46.24,0,0,1-14.13,10v11.57a54.76,54.76,0,0,0,18.53-10.87V138.11Z"/><path class="cls-21" d="M556.93,173.07c-.73.84-1.46,1.68-2.3,2.48a45.64,45.64,0,0,1-16.23,10.91v11.36A53.71,53.71,0,0,0,556.93,188v-15Z"/><path class="cls-21" d="M556.93,217V206.54c-.73.84-1.46,1.67-2.3,2.47a45.33,45.33,0,0,1-15.81,10.74,9.28,9.28,0,0,0,8.85,6.45,8.88,8.88,0,0,0,3.88-.87c.8-.49,1.57-1,2.34-1.57A9.08,9.08,0,0,0,556.93,217Z"/></g><g class="cls-22"><path class="cls-16" d="M355.14,173.57,349,179.65a26.53,26.53,0,1,0,37.49,37.55l5.89-5.84A39.94,39.94,0,0,0,355.14,173.57Z"/><path class="cls-21" d="M355.14,173.57,349,179.65a26.53,26.53,0,1,0,37.49,37.55l5.89-5.84A39.94,39.94,0,0,0,355.14,173.57Z"/><path class="cls-16" d="M431.1,141.47V87.58h-55v52.71a29.18,29.18,0,0,1-8.5,20.76l-12.48,12.52c18.53,1.76,35.13,18.94,37.25,37.79l22.5-22.53c-5-5.05-6.83-12.61-6.83-20.27C408,154.28,418.82,143.53,431.1,141.47Z"/><path class="cls-21" d="M431.39,161.2l-.29-19.73a27.79,27.79,0,0,0-16.26,47.31l8.79-8.73A26.56,26.56,0,0,0,431.39,161.2Z"/><path class="cls-21" d="M438.37,101.77H369.88a2.52,2.52,0,0,1-2.5-2.51V86.41a2.52,2.52,0,0,1,2.5-2.51h68.49a2.52,2.52,0,0,1,2.51,2.51v12.9A2.51,2.51,0,0,1,438.37,101.77Z"/></g><g class="cls-23"><path class="cls-21" d="M527.43,396.32a7.8,7.8,0,0,0-3.34.68,10.82,10.82,0,0,0-5.19,5.83,28.47,28.47,0,0,0-2.26,11.45c0,1.61.4,1.79.65,1.9,1,.5,3.44.5,5,.53h.47c7.2,0,11.68-1.39,14.08-4.43a9.13,9.13,0,0,0,1.29-8.41c0-.15-.11-.29-.14-.43a11.6,11.6,0,0,0-6.2-6.23A12,12,0,0,0,527.43,396.32Zm-4.7,27.91h-.53c-3.09,0-5.84-.14-8.21-1.25-2.19-1-4.84-3.37-4.94-8.59a35.75,35.75,0,0,1,2.9-14.6,18.36,18.36,0,0,1,9.06-9.74,15.87,15.87,0,0,1,6.38-1.32,18.77,18.77,0,0,1,7.31,1.54A19.12,19.12,0,0,1,545,400.65c.11.25.18.5.28.75a16.54,16.54,0,0,1-2.54,15.49C537.53,423.48,528.82,424.23,522.73,424.23Z"/><rect class="cls-21" x="506.61" y="420.69" width="8.49" height="3.22"/><path class="cls-21" d="M494,396.32a10.92,10.92,0,0,0-4.33.93,11.63,11.63,0,0,0-6.2,6.19,1.66,1.66,0,0,0-.14.43,9.18,9.18,0,0,0,1.28,8.41c2.41,3,6.88,4.43,14.09,4.43h.46c1.58,0,4,0,5-.53.21-.11.61-.29.64-1.9a28.46,28.46,0,0,0-2.25-11.45,10.85,10.85,0,0,0-5.2-5.83A8.12,8.12,0,0,0,494,396.32Zm4.66,27.91c-6.09,0-14.8-.75-20-7.3a16.65,16.65,0,0,1-2.55-15.53,5.78,5.78,0,0,1,.29-.75A19.24,19.24,0,0,1,494,388.73a15.37,15.37,0,0,1,6.37,1.32,18.38,18.38,0,0,1,9.07,9.74,36.46,36.46,0,0,1,2.9,14.6c-.11,5.19-2.72,7.51-4.94,8.59s-5.13,1.25-8.21,1.25Z"/><path class="cls-16" d="M557.7,510.87h-94a3.76,3.76,0,0,1-3.76-3.76V433a3.75,3.75,0,0,1,3.76-3.75h94A3.75,3.75,0,0,1,561.5,433v74.08A3.82,3.82,0,0,1,557.7,510.87Z"/><path class="cls-16" d="M566,449H454.26a3.75,3.75,0,0,1-3.76-3.75V427.31a3.76,3.76,0,0,1,3.76-3.76H566a3.76,3.76,0,0,1,3.76,3.76v17.93A3.76,3.76,0,0,1,566,449Z"/><rect class="cls-21" x="496.97" y="423.08" width="27.2" height="87.93"/></g><g class="cls-24"><path class="cls-16" d="M404.61,414.66l.45.24A3.28,3.28,0,0,1,404.61,414.66Z"/><path class="cls-16" d="M403.66,414.16c.15.06.3.15.42.21A1.83,1.83,0,0,1,403.66,414.16Z"/><path class="cls-16" d="M407.73,416.46a3.44,3.44,0,0,0,.47.29A2.59,2.59,0,0,1,407.73,416.46Z"/><path class="cls-16" d="M405.65,415.22c.21.12.42.24.65.35A4.07,4.07,0,0,1,405.65,415.22Z"/><path class="cls-16" d="M402.39,413.54l.38.18Z"/><path class="cls-16" d="M406.81,415.9l.47.29C407.13,416.1,407,416,406.81,415.9Z"/><path class="cls-16" d="M395.54,410.89c.12,0,.24.08.39.11A2,2,0,0,1,395.54,410.89Z"/><path class="cls-16" d="M396.76,411.3l.23.09A.48.48,0,0,0,396.76,411.3Z"/><path class="cls-16" d="M401.35,413.07c.15.06.27.12.42.17C401.62,413.19,401.5,413.13,401.35,413.07Z"/><path class="cls-16" d="M408.85,417.2c.21.11.39.26.6.38C409.24,417.46,409.06,417.31,408.85,417.2Z"/><path class="cls-16" d="M398,411.71c.12.06.27.09.39.15A3.36,3.36,0,0,0,398,411.71Z"/><path class="cls-16" d="M400.34,412.63l.33.14Z"/><path class="cls-16" d="M399,412.09c.12.06.27.09.38.15C399.28,412.21,399.16,412.15,399,412.09Z"/><path class="cls-16" d="M421.75,429.46c.51.68,1,1.36,1.45,2.07Z"/><path class="cls-16" d="M421.19,428.73c.18.2.32.44.5.64C421.51,429.17,421.37,429,421.19,428.73Z"/><path class="cls-16" d="M419.56,426.72c.53.62,1.06,1.27,1.54,1.92C420.62,428,420.09,427.34,419.56,426.72Z"/><path class="cls-16" d="M418.93,426a7.89,7.89,0,0,0,.54.59A7.39,7.39,0,0,1,418.93,426Z"/><path class="cls-16" d="M366.36,410.68l.33-.09Z"/><path class="cls-16" d="M423.26,431.64c.63,1,1.25,1.95,1.81,2.95C424.48,433.59,423.89,432.59,423.26,431.64Z"/><path class="cls-16" d="M417.81,424.74c.38.42.74.8,1.09,1.21Z"/><path class="cls-16" d="M417.19,424.1l.53.53C417.54,424.48,417.36,424.27,417.19,424.1Z"/><path class="cls-16" d="M412.68,420a5.21,5.21,0,0,1,.5.41Z"/><path class="cls-16" d="M411.88,419.35a6,6,0,0,1,.5.41Z"/><path class="cls-16" d="M410.69,418.46c.3.21.59.45.89.68C411.28,418.91,411,418.7,410.69,418.46Z"/><path class="cls-16" d="M414.64,421.65l.53.47A6.93,6.93,0,0,1,414.64,421.65Z"/><path class="cls-16" d="M413.39,420.59c.33.29.68.56,1,.85C414.07,421.15,413.75,420.88,413.39,420.59Z"/><path class="cls-16" d="M409.83,417.87l.51.36A2.65,2.65,0,0,0,409.83,417.87Z"/><path class="cls-16" d="M350.83,418.2a5.41,5.41,0,0,1,.5-.36A5.41,5.41,0,0,0,350.83,418.2Z"/><path class="cls-16" d="M343.41,424.66l.54-.53A6.69,6.69,0,0,0,343.41,424.66Z"/><path class="cls-16" d="M342.23,426c.35-.41.74-.82,1.09-1.21C342.94,425.16,342.58,425.57,342.23,426Z"/><path class="cls-16" d="M341.69,426.57c.18-.2.36-.41.54-.59C342,426.19,341.87,426.37,341.69,426.57Z"/><path class="cls-16" d="M346,422.12l.54-.47C346.35,421.8,346.17,421.94,346,422.12Z"/><path class="cls-16" d="M346.73,421.44c.33-.29.66-.59,1-.85C347.39,420.88,347.06,421.15,346.73,421.44Z"/><path class="cls-16" d="M348,420.41l.5-.41Z"/><path class="cls-16" d="M338,431.53c.47-.71,1-1.39,1.45-2.07C338.91,430.14,338.4,430.85,338,431.53Z"/><path class="cls-16" d="M334.84,437c.39-.76.77-1.53,1.22-2.27C335.61,435.42,335.23,436.16,334.84,437Z"/><path class="cls-16" d="M334.43,437.78a7.88,7.88,0,0,1,.38-.77A7.88,7.88,0,0,0,334.43,437.78Z"/><path class="cls-16" d="M340,428.64c.51-.65,1-1.3,1.54-1.92C341,427.34,340.51,428,340,428.64Z"/><path class="cls-16" d="M336.09,434.59c.56-1,1.19-2,1.81-2.95C337.25,432.59,336.65,433.59,336.09,434.59Z"/><path class="cls-16" d="M348.75,419.76c.18-.15.33-.26.5-.41C349.08,419.5,348.93,419.61,348.75,419.76Z"/><path class="cls-16" d="M339.44,429.4c.18-.2.33-.44.5-.65C339.77,429,339.62,429.17,339.44,429.4Z"/><path class="cls-16" d="M349.55,419.14c.3-.23.59-.44.89-.68C350.14,418.7,349.85,418.91,349.55,419.14Z"/><path class="cls-16" d="M361.74,412.24c.12-.06.23-.09.38-.15A2,2,0,0,1,361.74,412.24Z"/><path class="cls-16" d="M365.24,411c.11,0,.23-.08.38-.11Z"/><path class="cls-16" d="M359.37,413.27l.41-.17A1.32,1.32,0,0,0,359.37,413.27Z"/><path class="cls-16" d="M360.46,412.77l.33-.14Z"/><path class="cls-16" d="M362.8,411.86c.12-.06.27-.09.39-.15A1.51,1.51,0,0,0,362.8,411.86Z"/><path class="cls-16" d="M364.17,411.36l.24-.09Z"/><path class="cls-16" d="M358.36,413.72c.12-.06.23-.12.38-.18C358.62,413.6,358.51,413.66,358.36,413.72Z"/><path class="cls-16" d="M351.69,417.58c.2-.12.38-.27.59-.38C352.07,417.31,351.89,417.46,351.69,417.58Z"/><path class="cls-16" d="M352.93,416.75c.15-.08.3-.2.48-.29A3.07,3.07,0,0,1,352.93,416.75Z"/><path class="cls-16" d="M425.1,434.65c.42.74.83,1.51,1.22,2.27C425.93,436.16,425.52,435.42,425.1,434.65Z"/><path class="cls-16" d="M356.07,414.9l.45-.24A3.28,3.28,0,0,1,356.07,414.9Z"/><path class="cls-16" d="M354.86,415.6l.65-.35A5.71,5.71,0,0,0,354.86,415.6Z"/><path class="cls-16" d="M357.05,414.39a3.29,3.29,0,0,0,.42-.2Z"/><path class="cls-16" d="M353.85,416.19c.15-.09.3-.17.47-.29Z"/><path class="cls-16" d="M426.7,437.78H334.43a50.27,50.27,0,0,0-4.86,21.61,51,51,0,0,0,102,0A50.13,50.13,0,0,0,426.7,437.78Z"/><path class="cls-16" d="M345.79,422.33c-.57.53-1.13,1.06-1.67,1.62C344.66,423.39,345.22,422.83,345.79,422.33Z"/><path class="cls-16" d="M417,423.92c-.54-.56-1.1-1.09-1.66-1.62C415.91,422.83,416.47,423.39,417,423.92Z"/><path class="cls-16" d="M394.77,410.68c-.06,0-.12,0-.15-.06S394.71,410.65,394.77,410.68Z"/><path class="cls-16" d="M426.35,437c.12.27.26.53.38.77C426.58,437.51,426.47,437.25,426.35,437Z"/><path class="cls-16" d="M395.9,411l.83.27Z"/><path class="cls-16" d="M397,411.36l1,.35C397.64,411.59,397.32,411.48,397,411.36Z"/><path class="cls-16" d="M346.53,421.65a1.35,1.35,0,0,0,.2-.21Z"/><path class="cls-16" d="M345.79,422.33l.2-.21A1,1,0,0,0,345.79,422.33Z"/><path class="cls-16" d="M394.77,410.68l.77.24C395.27,410.83,395,410.74,394.77,410.68Z"/><path class="cls-16" d="M347.74,420.59l.21-.18A1.3,1.3,0,0,0,347.74,420.59Z"/><path class="cls-16" d="M344,424.1l.17-.18Z"/><path class="cls-16" d="M401.77,413.27c.2.09.41.18.62.3C402.18,413.45,402,413.36,401.77,413.27Z"/><path class="cls-16" d="M343.32,424.74a.26.26,0,0,0,.09-.11A.26.26,0,0,1,343.32,424.74Z"/><path class="cls-16" d="M402.77,413.72l.89.44Z"/><path class="cls-16" d="M365.62,410.89l.77-.24C366.13,410.74,365.86,410.83,365.62,410.89Z"/><path class="cls-16" d="M400.67,412.77c.24.09.44.21.68.3C401.14,413,400.91,412.89,400.67,412.77Z"/><path class="cls-16" d="M398.33,411.86c.23.09.44.18.68.26A3.29,3.29,0,0,0,398.33,411.86Z"/><path class="cls-16" d="M399.39,412.24c.33.12.63.27.95.39C400.05,412.51,399.72,412.39,399.39,412.24Z"/><path class="cls-16" d="M360.79,412.63c.32-.12.62-.27.95-.39C361.41,412.39,361.11,412.51,360.79,412.63Z"/><path class="cls-16" d="M351.3,417.87l.39-.26A1.76,1.76,0,0,0,351.3,417.87Z"/><path class="cls-16" d="M358.74,413.54c.21-.09.42-.21.63-.3A6,6,0,0,1,358.74,413.54Z"/><path class="cls-16" d="M357.5,414.16l.89-.44A8.21,8.21,0,0,0,357.5,414.16Z"/><path class="cls-16" d="M352.28,417.2l.65-.45Z"/><path class="cls-16" d="M356.52,414.66c.18-.09.35-.18.53-.29C356.87,414.48,356.7,414.57,356.52,414.66Z"/><path class="cls-16" d="M348.45,420c.09-.09.21-.15.3-.24C348.66,419.85,348.54,419.91,348.45,420Z"/><path class="cls-16" d="M353.41,416.46l.44-.27Z"/><path class="cls-16" d="M355.48,415.22l.59-.32C355.87,415,355.69,415.13,355.48,415.22Z"/><path class="cls-16" d="M363.19,411.71l1-.35Z"/><path class="cls-16" d="M349.25,419.35c.09-.09.21-.15.3-.24A2.1,2.1,0,0,1,349.25,419.35Z"/><path class="cls-16" d="M364.38,411.3l.83-.27A5,5,0,0,0,364.38,411.3Z"/><path class="cls-16" d="M362.12,412.09c.24-.08.45-.17.68-.26Z"/><path class="cls-16" d="M404.08,414.39a4,4,0,0,1,.53.3A4,4,0,0,0,404.08,414.39Z"/><path class="cls-16" d="M359.78,413.07c.24-.09.45-.21.68-.3A5.85,5.85,0,0,1,359.78,413.07Z"/><path class="cls-16" d="M350.44,418.46l.36-.26Z"/><path class="cls-16" d="M367.13,410.47c-.14,0-.29.09-.44.12A2.64,2.64,0,0,1,367.13,410.47Z"/><path class="cls-16" d="M425,434.59s0,.06,0,.09S425.07,434.62,425,434.59Z"/><path class="cls-16" d="M417.72,424.66a.53.53,0,0,1,.09.11A.53.53,0,0,0,417.72,424.66Z"/><path class="cls-16" d="M341.57,426.72c0-.06.09-.09.12-.15A.53.53,0,0,0,341.57,426.72Z"/><path class="cls-16" d="M417,423.92l.18.18Z"/><path class="cls-16" d="M414.4,421.44a1.39,1.39,0,0,1,.21.21A1.39,1.39,0,0,0,414.4,421.44Z"/><path class="cls-16" d="M413.21,420.41l.21.18A1.3,1.3,0,0,1,413.21,420.41Z"/><path class="cls-16" d="M334.81,437s0,0,0-.06S334.81,437,334.81,437Z"/><path class="cls-16" d="M419.44,426.57c0,.06.09.09.12.15A.53.53,0,0,0,419.44,426.57Z"/><path class="cls-16" d="M423.17,431.53s0,.06.06.09A.43.43,0,0,0,423.17,431.53Z"/><path class="cls-16" d="M421.69,429.4s0,.06.06.09A.37.37,0,0,0,421.69,429.4Z"/><path class="cls-16" d="M426.32,437s0,0,0,.06A.09.09,0,0,1,426.32,437Z"/><path class="cls-16" d="M412.38,419.76c.09.09.21.15.3.24C412.59,419.91,412.47,419.85,412.38,419.76Z"/><path class="cls-16" d="M421.13,428.64s0,.06.06.09S421.16,428.67,421.13,428.64Z"/><path class="cls-16" d="M415.14,422.12l.21.21A1.39,1.39,0,0,0,415.14,422.12Z"/><path class="cls-16" d="M354.32,415.9l.54-.33A5.22,5.22,0,0,1,354.32,415.9Z"/><path class="cls-16" d="M408.2,416.75c.21.15.45.3.65.45C408.65,417.05,408.41,416.9,408.2,416.75Z"/><path class="cls-16" d="M337.9,431.64s0-.05.06-.08S337.9,431.62,337.9,431.64Z"/><path class="cls-16" d="M409.45,417.58c.11.09.26.18.38.26C409.71,417.76,409.56,417.67,409.45,417.58Z"/><path class="cls-16" d="M339.38,429.46s0-.06.06-.09S339.41,429.43,339.38,429.46Z"/><path class="cls-16" d="M339.94,428.73s0-.06.06-.09S340,428.7,339.94,428.73Z"/><path class="cls-16" d="M407.28,416.19l.45.27Z"/><path class="cls-16" d="M405.06,414.9l.59.32C405.44,415.13,405.27,415,405.06,414.9Z"/><path class="cls-16" d="M336,434.65s0-.06,0-.09S336.06,434.62,336,434.65Z"/><path class="cls-16" d="M410.34,418.2l.35.26Z"/><path class="cls-16" d="M411.58,419.14c.09.09.21.15.3.24A2.1,2.1,0,0,0,411.58,419.14Z"/><path class="cls-16" d="M406.27,415.6l.54.33A5.22,5.22,0,0,0,406.27,415.6Z"/><path class="cls-21" d="M368.05,410.24c.27-.06.54-.15.8-.21l.36-.09c.33-.06.62-.15,1-.2a1.3,1.3,0,0,0,.15,0c.35-.09.74-.15,1.09-.21.12,0,.24,0,.33-.06.27-.06.56-.09.83-.15l.33-.06c.38-.05.74-.11,1.12-.14l.18,0c.33,0,.65-.09.95-.12l.36,0,.91-.09a.66.66,0,0,0,.24,0c.39,0,.77-.06,1.16-.06a3.51,3.51,0,0,0,.56,0c.21,0,.45,0,.65,0s.21-.05.33-.05c.39,0,.77-.06,1.16-.06s.77.06,1.15.06l.33,0c.3,0,.59,0,.92.06a.92.92,0,0,1,.29,0l1.16.09a.66.66,0,0,1,.24,0l.92.09c.12,0,.23,0,.35,0a8.79,8.79,0,0,1,.95.12.38.38,0,0,1,.18,0c.39.06.74.08,1.13.14l.32.06a7.58,7.58,0,0,1,.83.15c.12,0,.24,0,.33.06l1.1.21a.78.78,0,0,1,.14,0c.33.05.63.14.95.2l.36.09a7.86,7.86,0,0,1,.8.21l.3.08c.35.09.62.18,1,.3a.12.12,0,0,1,.08,0V402.1a3.25,3.25,0,0,0-3.26-3.25H370.31A3.25,3.25,0,0,0,367,402.1v8.37c.3-.06.39-.12.6-.14A1.7,1.7,0,0,1,368.05,410.24Z"/><path class="cls-21" d="M393.11,410.24l.29.09A.6.6,0,0,0,393.11,410.24Z"/><path class="cls-21" d="M394.59,410.62l-.15-.06C394.5,410.59,394.53,410.62,394.59,410.62Z"/><path class="cls-21" d="M391.92,409.94l.36.09Z"/><path class="cls-21" d="M389.37,409.44c.12,0,.24,0,.33.06C389.61,409.47,389.49,409.47,389.37,409.44Z"/><path class="cls-21" d="M390.83,409.71c.05,0,.11,0,.14,0S390.88,409.71,390.83,409.71Z"/><path class="cls-21" d="M367.73,410.3l.29-.09Z"/><path class="cls-21" d="M371.4,409.5c.12,0,.24,0,.33-.06C371.64,409.47,371.52,409.47,371.4,409.5Z"/><path class="cls-21" d="M388.22,409.26l.32.06A1.28,1.28,0,0,0,388.22,409.26Z"/><path class="cls-21" d="M372.59,409.29l.33-.06A1.28,1.28,0,0,1,372.59,409.29Z"/><path class="cls-21" d="M377.84,408.76h.29A.47.47,0,0,0,377.84,408.76Z"/><path class="cls-21" d="M375.2,409c.12,0,.24,0,.35,0A1.2,1.2,0,0,0,375.2,409Z"/><path class="cls-21" d="M374,409.09l.18,0A.38.38,0,0,1,374,409.09Z"/><path class="cls-21" d="M368.85,410l.36-.09Z"/><path class="cls-21" d="M376.47,408.85a.66.66,0,0,0,.24,0C376.62,408.82,376.53,408.85,376.47,408.85Z"/><path class="cls-21" d="M370.16,409.74a1.3,1.3,0,0,0,.15,0A1.3,1.3,0,0,1,370.16,409.74Z"/><path class="cls-21" d="M385.61,408.94c.12,0,.23,0,.35,0A1.38,1.38,0,0,0,385.61,408.94Z"/><path class="cls-21" d="M384.42,408.82a.66.66,0,0,1,.24,0C384.6,408.85,384.51,408.82,384.42,408.82Z"/><path class="cls-21" d="M386.91,409.06a.38.38,0,0,1,.18,0A.38.38,0,0,1,386.91,409.06Z"/><path class="cls-21" d="M374.22,409.06c.33,0,.65-.09.95-.12A9.12,9.12,0,0,1,374.22,409.06Z"/><path class="cls-21" d="M371.76,409.44c.27-.06.56-.09.83-.15C372.32,409.35,372,409.38,371.76,409.44Z"/><path class="cls-21" d="M368.05,410.24c.27-.06.54-.15.8-.21C368.59,410.09,368.32,410.15,368.05,410.24Z"/><path class="cls-21" d="M375.53,408.94l.91-.09Z"/><path class="cls-21" d="M370.31,409.71c.35-.09.74-.15,1.09-.21C371.05,409.56,370.69,409.62,370.31,409.71Z"/><path class="cls-21" d="M372.92,409.26c.38-.06.74-.11,1.12-.14C373.66,409.15,373.27,409.2,372.92,409.26Z"/><path class="cls-21" d="M367.79,410.3a3.14,3.14,0,0,1-.6.14A3.81,3.81,0,0,0,367.79,410.3Z"/><path class="cls-21" d="M369.21,409.94c.33-.06.62-.15,1-.2C369.83,409.79,369.54,409.88,369.21,409.94Z"/><path class="cls-21" d="M379.38,408.7h1.16A7.48,7.48,0,0,0,379.38,408.7Z"/><path class="cls-21" d="M383.29,408.76l1.16.06C384.06,408.79,383.68,408.76,383.29,408.76Z"/><path class="cls-21" d="M391,409.74c.33.05.63.14.95.2C391.6,409.88,391.3,409.79,391,409.74Z"/><path class="cls-21" d="M389.73,409.5l1.1.21C390.44,409.62,390.08,409.56,389.73,409.5Z"/><path class="cls-21" d="M384.66,408.85l.92.09Z"/><path class="cls-21" d="M388.54,409.29a7.58,7.58,0,0,1,.83.15C389.11,409.38,388.84,409.35,388.54,409.29Z"/><path class="cls-21" d="M387.09,409.09c.38.06.74.09,1.13.14C387.86,409.2,387.47,409.15,387.09,409.09Z"/><path class="cls-21" d="M386,409a9.12,9.12,0,0,1,1,.12C386.59,409,386.26,409,386,409Z"/><path class="cls-21" d="M378.13,408.73c.3,0,.6,0,.92,0C378.76,408.7,378.46,408.73,378.13,408.73Z"/><path class="cls-21" d="M376.71,408.82c.39,0,.77-.06,1.16-.06C377.45,408.76,377.1,408.79,376.71,408.82Z"/><path class="cls-21" d="M382.08,408.7c.29,0,.59,0,.92,0Z"/><path class="cls-21" d="M393.4,410.3a7.89,7.89,0,0,1,1,.29C394.09,410.47,393.73,410.38,393.4,410.3Z"/><path class="cls-21" d="M392.28,410c.26.06.53.12.8.21C392.81,410.15,392.54,410.09,392.28,410Z"/><path class="cls-16" d="M426.7,437.78H334.43a50.57,50.57,0,0,0,.18,43.64h91.92a50.52,50.52,0,0,0,.17-43.64Z"/><path class="cls-21" d="M361.8,467.32a9.81,9.81,0,0,1,4.3,2.6,5.4,5.4,0,0,1,1.12,2.42c.39,2.53-2.25,3.39-3.38,1.68a53.58,53.58,0,0,0-3-4.75,9.2,9.2,0,0,0-4.21-2.83C354.89,466,360,466.68,361.8,467.32Z"/><path class="cls-21" d="M357,470c0,.49-.21.73-.65.73s-.65-.24-.65-.73.22-.74.65-.74S357,469.55,357,470Z"/><path class="cls-21" d="M361.8,451.78a9.69,9.69,0,0,0,4.3-2.59,5.4,5.4,0,0,0,1.12-2.42c.39-2.53-2.25-3.39-3.38-1.68a53.58,53.58,0,0,1-3,4.75,9.27,9.27,0,0,1-4.21,2.83C354.89,453.14,360,452.43,361.8,451.78Z"/><path class="cls-21" d="M373.51,457.77a1.42,1.42,0,0,1,1.3,1.5,1.4,1.4,0,0,1-1.3,1.48,1.42,1.42,0,0,1-1.31-1.48A1.41,1.41,0,0,1,373.51,457.77Z"/><path class="cls-21" d="M363.87,459.27c0,.5-.22.74-.65.74s-.65-.24-.65-.74.22-.73.65-.73S363.87,458.78,363.87,459.27Z"/><path class="cls-21" d="M357,449c0,.49-.21.74-.65.74s-.65-.25-.65-.74.22-.73.65-.73S357,448.55,357,449Z"/><path class="cls-21" d="M347.33,452.49a11.74,11.74,0,0,1-5.07-3.06,6.52,6.52,0,0,1-1.34-2.86c-.44-3,2.67-4,4-2,1.21,1.83,2.31,4.13,3.55,5.6a10.73,10.73,0,0,0,5,3.33C355.48,454.08,349.46,453.26,347.33,452.49Z"/><ellipse class="cls-21" cx="351.24" cy="459.27" rx="0.65" ry="0.74"/><path class="cls-21" d="M340,459.27c0,.5-.21.74-.65.74s-.65-.24-.65-.74.22-.73.65-.73S340,458.78,340,459.27Z"/><path class="cls-21" d="M347.33,466.38a11.67,11.67,0,0,0-5.07,3.07,6.47,6.47,0,0,0-1.34,2.86c-.44,3,2.67,4,4,2a64,64,0,0,1,3.55-5.6,10.73,10.73,0,0,1,5-3.33C355.48,464.79,349.46,465.61,347.33,466.38Z"/><path class="cls-21" d="M400.19,467.32a9.72,9.72,0,0,0-4.29,2.6,5.31,5.31,0,0,0-1.13,2.42c-.39,2.53,2.28,3.39,3.38,1.68a56,56,0,0,1,3-4.75,9.2,9.2,0,0,1,4.21-2.83C407.1,466,402,466.68,400.19,467.32Z"/><path class="cls-21" d="M406.27,470c0,.49-.21.73-.65.73s-.65-.24-.65-.73.22-.74.65-.74S406.27,469.55,406.27,470Z"/><path class="cls-21" d="M400.19,451.78a9.61,9.61,0,0,1-4.29-2.59,5.31,5.31,0,0,1-1.13-2.42c-.39-2.53,2.28-3.39,3.38-1.68a56,56,0,0,0,3,4.75,9.27,9.27,0,0,0,4.21,2.83C407.1,453.14,402,452.43,400.19,451.78Z"/><path class="cls-21" d="M388.48,457.77a1.42,1.42,0,0,0-1.3,1.5,1.38,1.38,0,0,0,1.3,1.48,1.5,1.5,0,0,0,0-3Z"/><path class="cls-21" d="M399.42,459.27c0,.5-.21.74-.65.74s-.65-.24-.65-.74.22-.73.65-.73S399.42,458.78,399.42,459.27Z"/><path class="cls-21" d="M406.27,449c0,.49-.21.74-.65.74s-.65-.25-.65-.74.22-.73.65-.73S406.27,448.55,406.27,449Z"/><path class="cls-21" d="M414.66,452.49a11.83,11.83,0,0,0,5.08-3.06,6.61,6.61,0,0,0,1.33-2.86c.44-3-2.67-4-4-2-1.22,1.83-2.32,4.13-3.56,5.6a10.73,10.73,0,0,1-5,3.33C406.51,454.08,412.53,453.26,414.66,452.49Z"/><path class="cls-21" d="M411.4,459.27c0,.5-.21.74-.65.74s-.65-.24-.65-.74.22-.73.65-.73S411.4,458.78,411.4,459.27Z"/><ellipse class="cls-21" cx="422.64" cy="459.27" rx="0.65" ry="0.74"/><path class="cls-21" d="M414.66,466.38a11.76,11.76,0,0,1,5.08,3.07,6.56,6.56,0,0,1,1.33,2.86c.44,3-2.67,4-4,2-1.22-1.83-2.32-4.15-3.56-5.6a10.73,10.73,0,0,0-5-3.33C406.51,464.79,412.53,465.61,414.66,466.38Z"/><path class="cls-21" d="M374.72,451a7.08,7.08,0,0,0-8.15,7.58,22.3,22.3,0,0,0,4-2.39C372.06,455.12,374.13,453.58,374.72,451Z"/><path class="cls-21" d="M375,468.24a7.08,7.08,0,0,1-8.15-7.58,23.21,23.21,0,0,1,4,2.39C372.32,464.11,374.4,465.64,375,468.24Z"/><path class="cls-21" d="M339.94,465.58a6.15,6.15,0,0,1,8.31-4.89,23.07,23.07,0,0,1-3,2.77C344,464.38,342.26,465.73,339.94,465.58Z"/><path class="cls-21" d="M350.26,448.69a7.8,7.8,0,0,1-1.87-3.83c-.14-.92-.23-2.63.42-3.37,1-1.15,2.05-.23,2.43.92,1,3.15,0,6.93,2.88,9,.15.09,0,.06-.06.06-.24,0-.65-.33-.86-.41a11.84,11.84,0,0,1-2-1.39C350.91,449.37,350.59,449,350.26,448.69Z"/><path class="cls-21" d="M358.48,459.45a2,2,0,0,1-.6,1.44,2.05,2.05,0,0,1-2.9,0,2,2,0,0,1,0-2.88,2.08,2.08,0,0,1,2.9,0A2,2,0,0,1,358.48,459.45Z"/><path class="cls-21" d="M339.94,453a6.15,6.15,0,0,0,8.31,4.9,22.36,22.36,0,0,0-3-2.77C344,454.17,342.26,452.82,339.94,453Z"/><path class="cls-21" d="M350.26,470.27a7.79,7.79,0,0,0-1.87,3.84c-.14.94-.23,2.62.42,3.36,1,1.15,2.05.23,2.43-.92,1-3.15,0-6.93,2.88-9.05.15-.09,0-.06-.06-.06-.24,0-.65.33-.86.42a11.23,11.23,0,0,0-2,1.38C350.91,469.6,350.59,469.92,350.26,470.27Z"/><path class="cls-21" d="M387.27,451a7.08,7.08,0,0,1,8.15,7.58,22.68,22.68,0,0,1-4-2.39C389.94,455.12,387.86,453.58,387.27,451Z"/><path class="cls-21" d="M387,468.24a7.08,7.08,0,0,0,8.15-7.58,22.08,22.08,0,0,0-4,2.39C389.67,464.11,387.59,465.64,387,468.24Z"/><path class="cls-21" d="M411.73,448.69a7.8,7.8,0,0,0,1.87-3.83c.15-.92.23-2.63-.42-3.37-1-1.15-2-.23-2.43.92-1,3.15,0,6.93-2.88,9-.14.09,0,.06.06.06.24,0,.66-.33.86-.41a11.45,11.45,0,0,0,2-1.39C411.08,449.37,411.4,449,411.73,448.69Z"/><path class="cls-21" d="M407.61,459.45a2.05,2.05,0,1,1-2.05-2A2,2,0,0,1,407,458,2,2,0,0,1,407.61,459.45Z"/><ellipse class="cls-21" cx="381.19" cy="459.45" rx="3.11" ry="3.1"/><path class="cls-21" d="M422.05,465.58a6.13,6.13,0,0,0-8.3-4.89,20.74,20.74,0,0,0,3,2.77C418,464.38,419.74,465.73,422.05,465.58Z"/><path class="cls-21" d="M422.05,453a6.13,6.13,0,0,1-8.3,4.9,20.16,20.16,0,0,1,3-2.77C418,454.17,419.74,452.82,422.05,453Z"/><path class="cls-21" d="M411.73,470.27a7.79,7.79,0,0,1,1.87,3.84c.15.94.23,2.62-.42,3.36-1,1.15-2,.23-2.43-.92-1-3.15,0-6.93-2.88-9.05-.14-.09,0-.06.06-.06.24,0,.66.33.86.42a10.88,10.88,0,0,1,2,1.38C411.08,469.6,411.4,469.92,411.73,470.27Z"/><path class="cls-16" d="M338,431.59l-.06.05c-.62,1-1.25,1.95-1.81,2.95,0,0,0,0,0,.06-.42.74-.83,1.51-1.22,2.27,0,0,.06,0,0,.06a2.23,2.23,0,0,0-.29.77h92.15a6.12,6.12,0,0,0-.38-.77s0,0,0-.06c-.39-.76-.77-1.53-1.22-2.27,0,0,0-.06,0-.09-.56-1-1.18-2-1.81-2.94l-.06-.06h0l-85.21,0Z"/><path class="cls-16" d="M421.19,428.78s0-.08-.06-.11c-.51-.65-1-1.3-1.54-1.95,0-.06-.09-.09-.12-.15-.18-.2-.36-.41-.54-.59-.35-.41-.74-.82-1.09-1.21a.35.35,0,0,1-.09-.11l-.54-.53L417,424c-.54-.56-1.1-1.09-1.66-1.62l-.21-.21-.53-.47a1.39,1.39,0,0,1-.21-.21c-.33-.29-.65-.59-1-.85l-.21-.18-.5-.41c-.09-.09-.21-.15-.3-.24l-.5-.41c-.09-.09-.21-.15-.3-.24-.3-.23-.59-.44-.89-.68l-.35-.26a5.06,5.06,0,0,0-.51-.35c-.12-.09-.27-.18-.38-.27s-.39-.27-.6-.38-.44-.3-.65-.45-.3-.2-.47-.29l-.45-.27a4.31,4.31,0,0,1-.47-.29c-.18-.12-.36-.21-.54-.33l-.65-.35-.59-.32c-.15-.09-.3-.15-.45-.24s-.35-.18-.53-.29-.3-.15-.42-.21l-.89-.44a3.43,3.43,0,0,0-.38-.18c-.21-.09-.42-.21-.62-.29l-.42-.18c-.24-.09-.44-.21-.68-.3l-.33-.14c-.32-.12-.62-.27-.95-.39a2.35,2.35,0,0,0-.38-.14l-.68-.27c-.12-.06-.27-.09-.39-.15l-1-.35-.23-.09-.83-.27c-.12,0-.24-.08-.39-.11s-.59-.15-.83-.24c-.06,0,.06,0-.24-.06l-.09-.06c-.35-.09-.62-.17-1-.29l-.3-.09c-.27-.06-.54-.15-.8-.21l-.36-.09c-.32-.05-.62-.14-.95-.2a.78.78,0,0,1-.14,0c-.36-.09-.75-.15-1.1-.21-.12,0-.24,0-.33-.06-.26-.06-.56-.09-.83-.14l-.32-.06c-.39-.06-.75-.12-1.13-.15l-.18,0c-.33,0-.65-.09-.95-.12-.12,0-.24,0-.35,0l-.92-.09a.66.66,0,0,1-.24,0c-.39,0-.77-.05-1.16-.05H383c-.3,0-.6,0-.92,0-.12,0-.24-.06-.33-.06-.38,0-.77-.06-1.15-.06s-.78.06-1.16.06c-.12,0-.24,0-.33,0-.29,0-.59,0-.92.06a1,1,0,0,0-.29,0l-1.16.08a.66.66,0,0,0-.24,0l-.92.09c-.11,0-.23,0-.35,0a9.12,9.12,0,0,0-.95.12l-.18,0-1.13.15a3.06,3.06,0,0,1-.32.05,8,8,0,0,0-.83.15c-.12,0-.24,0-.33.06l-1.09.21a1.3,1.3,0,0,0-.15,0l-.95.2-.36.09c-.26.06-.53.12-.8.21l-.27.09a4.48,4.48,0,0,1-.59.17,2.17,2.17,0,0,0-.47.12l-.33.09-.77.24-.39.11-.86.27-.23.09-1,.35c-.12.06-.27.09-.39.15s-.44.18-.68.26-.27.09-.38.15c-.33.12-.63.27-.95.39l-.33.14c-.24.09-.44.21-.68.3s-.27.12-.42.17-.41.18-.62.3l-.38.18-.89.44c-.15.06-.3.15-.42.21a3.47,3.47,0,0,0-.53.29l-.45.24-.59.32c-.21.12-.42.24-.65.35l-.54.33-.47.29-.45.27a3.44,3.44,0,0,1-.47.29l-.65.45c-.21.11-.39.26-.6.38s-.26.18-.38.26l-.5.36-.36.26c-.3.21-.59.45-.89.68-.09.09-.21.15-.3.24s-.32.26-.5.41-.21.15-.3.24-.35.26-.5.41l-.21.18c-.32.29-.68.56-1,.85a1,1,0,0,0-.2.21l-.54.47-.21.21c-.56.53-1.12,1.06-1.66,1.62l-.17.17-.54.54a.35.35,0,0,0-.09.11c-.38.42-.74.8-1.09,1.21a7.89,7.89,0,0,1-.54.59c0,.06-.09.09-.12.15-.53.62-1.06,1.27-1.54,1.92,0,0,0,.11-.06.14a.51.51,0,0,0-.06.15h81.4C421.25,428.93,421.22,428.81,421.19,428.78Z"/><path class="cls-21" d="M421.69,429.43c-.15-.17-.29-.5-.41-.5h-81.4c-.14,0-.29.33-.41.5s0,.06-.06.09a17.14,17.14,0,0,0-1.42,2h85.18a10.6,10.6,0,0,0-1.42-2S421.69,429.46,421.69,429.43Z"/><path class="cls-16" d="M426.53,481.42H334.61a52.32,52.32,0,0,0,3.7,6.49h84.54A57.8,57.8,0,0,0,426.53,481.42Z"/><path class="cls-16" d="M380.57,510.2a51.51,51.51,0,0,0,40.32-19.64H340.24A51.51,51.51,0,0,0,380.57,510.2Z"/><path class="cls-21" d="M338.31,487.91c.63.88,1.28,1.77,2,2.65h80.62c.68-.88,1.34-1.77,2-2.65Z"/><path class="cls-21" d="M380.8,404.46a1.46,1.46,0,0,1-1.48-1.48V390.3a1.49,1.49,0,0,1,3,0V403A1.47,1.47,0,0,1,380.8,404.46Z"/></g><g class="cls-14"><text class="cls-25" transform="translate(48.03 271.66)">C</text><text class="cls-25" transform="translate(78.48 271.66)">H</text><text class="cls-25" transform="translate(116.07 271.66)">R</text><text class="cls-25" transform="translate(148.11 271.66)">I</text><text class="cls-25" transform="translate(163.21 271.66)">S</text><text class="cls-25" transform="translate(187.66 271.66)">T</text><text class="cls-25" transform="translate(217.83 271.66)">M</text><text class="cls-26" transform="translate(54.32 318.16)">E</text><text class="cls-26" transform="translate(82.84 318.16)">X</text><text class="cls-26" transform="translate(119.21 318.16)">T</text><text class="cls-26" transform="translate(149.7 318.16)">R</text><text class="cls-26" transform="translate(182.08 318.16)">A</text><text class="cls-26" transform="translate(219.3 318.16)">V</text><polygon class="cls-21" points="97.62 202.12 99.11 202.12 101.28 190.3 100.14 190.3 98.31 200.79 95.91 190.3 94.46 190.3 92.06 200.79 90.23 190.3 89.09 190.3 91.26 202.12 92.75 202.12 95.18 191.47 97.62 202.12"/><path class="cls-21" d="M107.48,191.37l1.86,6.66h-3.72Zm-.77-1.19L103.34,202h1.17l.84-3h4.27l.84,3h1.17l-3.37-11.82Z"/><polygon class="cls-21" points="115.26 190.3 114.18 190.3 114.18 202 115.26 202 115.26 198.4 116.82 196.2 119.76 202 120.99 202 117.51 195.22 120.99 190.3 119.67 190.3 115.26 196.72 115.26 190.3"/><polygon class="cls-21" points="123.62 190.3 123.62 202 130.14 202 130.14 201.03 124.7 201.03 124.7 196.51 129.39 196.51 129.39 195.55 124.7 195.55 124.7 191.28 130.14 191.28 130.14 190.3 123.62 190.3"/><path class="cls-21" d="M140.54,202.17c2.49,0,3.76-1,3.76-3.8V190.3h-1.08v8c0,2.22-.88,2.89-2.68,2.89s-2.67-.67-2.67-2.89v-8h-1.08v8.07C136.79,201.19,138.05,202.17,140.54,202.17Z"/><path class="cls-21" d="M148.53,196.27v-5h2.19a2.19,2.19,0,0,1,2.45,2.38v.23a2.19,2.19,0,0,1-2.45,2.38Zm0,1h2.16c1.67,0,3.59-.63,3.59-3.32v-.3c0-2.7-1.92-3.33-3.59-3.33h-3.24V202h1.08Z"/><polygon class="cls-21" points="169.1 202.12 170.58 202.12 172.76 190.3 171.62 190.3 169.79 200.79 167.39 190.3 165.93 190.3 163.53 200.79 161.7 190.3 160.56 190.3 162.74 202.12 164.22 202.12 166.65 191.47 169.1 202.12"/><rect class="cls-21" x="175.56" y="190.3" width="1.08" height="11.7"/><polygon class="cls-21" points="183.23 191.28 186.21 191.28 186.21 190.3 179.18 190.3 179.18 191.28 182.15 191.28 182.15 202 183.23 202 183.23 191.28"/><polygon class="cls-21" points="194.96 190.3 194.96 195.55 189.75 195.55 189.75 190.3 188.67 190.3 188.67 202 189.75 202 189.75 196.51 194.96 196.51 194.96 202 196.04 202 196.04 190.3 194.96 190.3"/><path class="cls-21" d="M206.94,202.17c2.49,0,3.77-1,3.77-3.8V190.3h-1.08v8c0,2.22-.89,2.89-2.69,2.89s-2.67-.67-2.67-2.89v-8h-1.08v8.07C203.19,201.19,204.45,202.17,206.94,202.17Z"/><path class="cls-21" d="M217.07,196.45c2,.29,2.89,1,2.89,2.36v.13c0,1.43-1.06,2.25-2.65,2.25h-.11c-1.57,0-2.68-.94-2.68-3h-1.08v.15a3.46,3.46,0,0,0,3.81,3.83c2.34,0,3.82-1.23,3.82-3.3v-.15c0-1.8-1-2.84-3.6-3.18-2.14-.3-2.79-1-2.79-2.28v-.12c0-1.26,1.08-2,2.51-2h.1c1.79,0,2.57.93,2.57,3.15h1.08v-.36c0-2.41-1.08-3.76-3.69-3.76-2.22,0-3.68,1.18-3.68,3.13v.15C213.57,195,214.52,196.11,217.07,196.45Z"/><path class="cls-21" d="M55.32,375.53l1.55,5.55h-3.1Zm-.64-1-2.81,9.85h1l.7-2.5H57.1l.7,2.5h1L56,374.54Z"/><path class="cls-21" d="M61.89,379.62v-4.16h1.82a1.82,1.82,0,0,1,2,2v.19a1.83,1.83,0,0,1-2,2Zm0,.81h1.8c1.39,0,3-.53,3-2.76v-.25c0-2.25-1.59-2.78-3-2.78H61v9.75h.9Z"/><path class="cls-21" d="M72,375.53l1.55,5.55h-3.1Zm-.64-1-2.81,9.85h1l.7-2.5h3.57l.7,2.5h1l-2.81-9.85Z"/><rect class="cls-21" x="77.69" y="374.64" width="0.9" height="9.75"/><polygon class="cls-21" points="84.17 375.45 86.65 375.45 86.65 374.64 80.79 374.64 80.79 375.45 83.27 375.45 83.27 384.39 84.17 384.39 84.17 375.45"/><polygon class="cls-21" points="91.8 373.89 90.92 373.89 88.05 385.89 88.92 385.89 91.8 373.89"/><polygon class="cls-21" points="96.57 375.45 99.06 375.45 99.06 374.64 93.2 374.64 93.2 375.45 95.67 375.45 95.67 384.39 96.57 384.39 96.57 375.45"/><polygon class="cls-21" points="107.89 384.49 109.13 384.49 110.94 374.64 109.99 374.64 108.47 383.38 106.47 374.64 105.25 374.64 103.25 383.38 101.73 374.64 100.78 374.64 102.59 384.49 103.83 384.49 105.85 375.62 107.89 384.49"/><path class="cls-21" d="M114,379.77v-.5c0-2.78.75-3.95,2.37-3.95h.09c1.46,0,2.08.86,2.08,2.87h.92v-.35c0-2.2-1-3.33-3.07-3.33-2.24,0-3.31,1.38-3.31,4.76v.5c0,3.37,1.07,4.76,3.31,4.76,2.07,0,3.07-1.14,3.07-3.19v-.12h-.92c0,1.61-.62,2.49-2.08,2.49h-.09C114.75,383.71,114,382.54,114,379.77Z"/><rect class="cls-21" x="125.27" y="373.89" width="0.87" height="12"/><path class="cls-21" d="M133.13,383.58v-8.12h1.59c1.88,0,2.93,1,2.93,3.81v.5c0,2.77-1.05,3.81-2.93,3.81Zm5.44-3.81v-.5c0-3.38-1.4-4.63-3.77-4.63h-2.57v9.75h2.57C137.17,384.39,138.57,383.14,138.57,379.77Z"/><polygon class="cls-21" points="141.13 374.64 141.13 384.39 146.57 384.39 146.57 383.58 142.03 383.58 142.03 379.82 145.94 379.82 145.94 379.02 142.03 379.02 142.03 375.45 146.57 375.45 146.57 374.64 141.13 374.64"/><path class="cls-21" d="M149.63,379.77v-.5c0-2.78.75-3.95,2.37-3.95h.09c1.46,0,2.07.86,2.07,2.87h.93v-.35c0-2.2-1-3.33-3.07-3.33-2.24,0-3.32,1.38-3.32,4.76v.5c0,3.37,1.08,4.76,3.32,4.76,2.07,0,3.07-1.14,3.07-3.19v-.12h-.93c0,1.61-.61,2.49-2.07,2.49H152C150.37,383.71,149.63,382.54,149.63,379.77Z"/><rect class="cls-21" x="157.42" y="383.26" width="1.12" height="1.12"/><path class="cls-21" d="M166.68,383.58h-.93l3.59-3.82a3.21,3.21,0,0,0,1.14-2.52v-.15c0-1.53-1.07-2.59-3-2.59s-3.05,1.12-3.05,3.08v.3h.89c0-1.83.71-2.58,2.12-2.58h.08a1.9,1.9,0,0,1,2.12,1.93v.13a2.63,2.63,0,0,1-1,2l-4.21,4.48v.56h6.1v-.81Z"/><polygon class="cls-21" points="178.96 384.39 178.96 383.58 176.43 383.58 176.43 374.59 175.85 374.59 172.79 376.67 173.24 377.36 175.54 375.79 175.54 383.58 172.99 383.58 172.99 384.39 178.96 384.39"/><rect class="cls-21" x="184.77" y="373.89" width="0.87" height="12"/><polygon class="cls-21" points="197.67 384.39 197.67 383.58 195.13 383.58 195.13 374.59 194.56 374.59 191.49 376.67 191.94 377.36 194.24 375.79 194.24 383.58 191.69 383.58 191.69 384.39 197.67 384.39"/><polygon class="cls-21" points="206.09 384.39 206.09 383.58 203.55 383.58 203.55 374.59 202.98 374.59 199.91 376.67 200.36 377.36 202.66 375.79 202.66 383.58 200.11 383.58 200.11 384.39 206.09 384.39"/><path class="cls-21" d="M211.46,375.53l1.55,5.55h-3.1Zm-.64-1L208,384.39h1l.7-2.5h3.57l.69,2.5h1l-2.81-9.85Z"/><polygon class="cls-21" points="224.46 376.2 224.43 378.38 224.43 384.39 225.33 384.39 225.33 374.64 224.06 374.64 221.23 382.84 218.39 374.64 217.13 374.64 217.13 384.39 218.03 384.39 218.03 378.38 217.98 376.2 220.82 384.39 221.63 384.39 224.46 376.2"/><rect class="cls-21" x="227.66" y="379.62" width="3.11" height="0.8"/><path class="cls-21" d="M236,379.07h.07a2,2,0,0,1,2.13,2.21v.21a2.05,2.05,0,0,1-2.19,2.24H236a2.31,2.31,0,0,1-2.19-2.59V381c0-.19,0-.39,0-.58A2.5,2.5,0,0,1,236,379.07Zm2.64-4.56a5.42,5.42,0,0,0-4.4,2,7.2,7.2,0,0,0-1.38,4.47v.13c0,2.19,1.32,3.43,3.11,3.43a2.83,2.83,0,0,0,3.12-3.08v-.12a2.76,2.76,0,0,0-2.93-3.06,3,3,0,0,0-2.2.9,5.64,5.64,0,0,1,1-2.14,4.64,4.64,0,0,1,3.69-1.72Z"/><path class="cls-21" d="M242.44,379.62v-4.16h1.83a1.82,1.82,0,0,1,2,2v.19a1.83,1.83,0,0,1-2,2Zm0,.81h1.8c1.39,0,3-.53,3-2.76v-.25c0-2.25-1.6-2.78-3-2.78h-2.7v9.75h.9Z"/><polygon class="cls-21" points="256.96 376.2 256.92 378.38 256.92 384.39 257.82 384.39 257.82 374.64 256.56 374.64 253.72 382.84 250.89 374.64 249.62 374.64 249.62 384.39 250.52 384.39 250.52 378.38 250.47 376.2 253.31 384.39 254.12 384.39 256.96 376.2"/></g><g class="cls-27"><path class="cls-16" d="M156.9,64.54v.93L156,66l-.16.06-.59.34-.68-.4-.37-.21-.57-.35V63.58l.66-.37.06,0,.9-.49.79.43.05,0,.75.43Zm-.65-3.33-.93-.56-.88.49-1.87,1.09-.66.37v3.9l.88.49,1.37.78,1.16.68.65-.37,1.82-1,1-.56V62.61l-.79-.47ZM156,69l-.49.27-.19.13-.93-.53-.35-.18-1.72-1,0,0-.81-.43h0l-.13-.06-.27-.16V62.16l.58-.34.13-.06,2.59-1.49.78-.47.13-.06.28.16.78.44,2.31,1.33.85.49V67l-1,.59Zm22.31,5.57-5.05-2.42,3-2.07-1.12-1.61L171.2,71.2l-2.19-1L174.85,66l-1.12-1.61L167,69.13l-1.34-.66,3-2.07-1.12-1.6-3.91,2.72-1.83-.89-.28-.13,0-4.11v-.16l.06,0,1.6-1,4.42,2.35.94-1.73-3.4-1.8,1.3-.8,7.18,3.8.93-1.73-6.05-3.27,1.93-1.18,4.42,2.35.94-1.73-3.4-1.79,4.93-3-1-1.67-4.77,2.84-.16-3.61-2,.06.16,4.7-2,1.24-.26-7.08-2,.05.31,8.21-1.28.78-.16-3.63-2,.06.17,4.7-1.62,1-.19.13-4-2.29,0,0V55.32L160.51,53l-1-1.73L156.37,53V51.54l7.2-4-.93-1.71-6.27,3.4V46.88l4.14-2.29-1-1.73-3.17,1.79V39.09h-2v5.69l-3.3-2-1,1.71,4.33,2.53v2.26l-6-3.5-1,1.71,7,4.11v1.52l-3.31-2-1,1.71,4.33,2.53v2.6l-4.58,2.66-.19.12-1.56-.74-.25-4.7-2,.13.22,3.58-1.31-.65-.59-8.2-2,.12.4,7.12-2.18-1.06-.26-4.69-2,.12.19,3.59L133.39,53l-.87,1.8,5.17,2.47-3.21,2.1,1.1,1.63,4.18-2.74,2.05,1L136,63.05l1.09,1.64,6.77-4.45,1.41.67L142,63l1.1,1.63,4.22-2.75,1.83.9,0,4v.43l-1.72,1-4.14-2.33-1,1.7,3.15,1.8-1.28.78-7.17-4.08-1,1.71,6.21,3.56-2.06,1.24-4.11-2.35-1,1.71,3.15,1.8-4.83,2.83,1,1.67,4.93-2.94,0,3.8,2,0,0-4.94L143.3,73l.06,6.89,2,0-.06-8,1.3-.81,0,3.81,2,0,0-5,1.74-1.06h0l3.53,2,.44.25v1.18L150,74.71l1,1.7,3.3-2V76l-7,4.12,1,1.71,6-3.5v2.26l-4.33,2.53,1,1.71,3.3-2v5.73h2V83l3.17,1.73,1-1.73-4.14-2.29V78.38l6.27,3.44,1-1.73-7-4V74.61l3.17,1.73,1-1.73-4.14-2.29V71l4.14-2.38.35-.19,1.69.8.44,5,2-.16-.31-3.8,1.41.68.68,8,2-.16-.59-6.86,2.06,1,.44,5,2-.16-.35-3.8,5.18,2.47Z"/></g><g class="cls-28"><polygon class="cls-21" points="128.02 70.55 124.95 69.04 126.76 67.76 126.05 66.76 123.72 68.42 122.4 67.79 125.96 65.24 125.26 64.27 121.17 67.17 120.38 66.8 122.15 65.48 121.48 64.48 119.12 66.17 115.44 64.36 118.84 62.23 121.54 63.7 122.13 62.63 120.04 61.49 120.83 61.01 125.17 63.38 125.75 62.3 122.04 60.26 123.23 59.54 125.9 61.01 126.48 59.95 124.43 58.79 127.4 56.98 126.79 55.92 123.88 57.74 123.79 55.48 122.58 55.52 122.71 58.45 121.45 59.2 121.3 54.8 120.11 54.86 120.29 59.95 119.52 60.42 119.42 58.16 118.23 58.2 118.32 61.1 114.76 63.33 114.76 58.57 117.28 57.13 116.7 56.07 114.76 57.17 114.76 56.27 119.12 53.79 118.54 52.7 114.76 54.86 114.76 53.36 117.28 51.95 116.7 50.89 114.76 51.98 114.76 48.51 113.56 48.51 113.56 52.08 111.57 50.86 110.96 51.89 113.56 53.48 113.56 54.89 109.94 52.7 109.33 53.77 113.56 56.29 113.56 57.26 111.57 56.05 110.96 57.11 113.56 58.67 113.56 63.45 109.69 61.55 109.55 58.6 108.34 58.7 108.47 60.92 107.67 60.52 107.4 55.45 106.19 55.52 106.44 59.92 105.12 59.3 104.97 56.36 103.77 56.42 103.9 58.67 100.83 57.17 100.31 58.26 103.43 59.8 101.5 61.1 102.18 62.13 104.69 60.42 105.92 61.05 102.42 63.38 103.1 64.42 107.18 61.64 108.03 62.04 106.08 63.38 106.75 64.39 109.26 62.67 112.92 64.48 109.36 66.64 106.88 65.17 106.3 66.23 108.19 67.36 107.42 67.83 103.1 65.3 102.49 66.36 106.26 68.55 105 69.32 102.51 67.85 101.93 68.92 103.84 70.04 100.92 71.82 101.53 72.89 104.55 71.05 104.55 73.42 105.74 73.38 105.74 70.29 106.91 69.58 106.93 73.86 108.14 73.86 108.1 68.86 108.9 68.36 108.9 70.73 110.13 70.7 110.07 67.63 113.56 65.48 113.56 69.1 110.96 70.66 111.57 71.73 113.56 70.51 113.56 71.49 109.33 74.01 109.94 75.07 113.56 72.89 113.56 74.3 110.96 75.88 111.57 76.91 113.56 75.7 113.56 79.26 114.76 79.26 114.76 75.83 116.7 76.89 117.28 75.83 114.76 74.41 114.76 72.92 118.54 75.04 119.12 73.99 114.76 71.51 114.76 70.64 116.7 71.69 117.28 70.64 114.76 69.19 114.76 65.39 118.5 67.23 118.78 70.29 119.98 70.2 119.77 67.85 120.62 68.26 121.03 73.23 122.22 73.14 121.85 68.88 123.11 69.48 123.36 72.57 124.55 72.45 124.37 70.11 127.5 71.64 128.02 70.55"/></g><g class="cls-29"><polygon class="cls-21" points="209.71 70.55 206.64 69.04 208.45 67.76 207.74 66.76 205.41 68.42 204.09 67.79 207.65 65.24 206.95 64.27 202.87 67.17 202.07 66.8 203.84 65.48 203.17 64.48 200.81 66.17 197.13 64.36 200.54 62.23 203.23 63.7 203.82 62.63 201.73 61.49 202.53 61.01 206.86 63.38 207.44 62.3 203.73 60.26 204.92 59.54 207.6 61.01 208.18 59.95 206.12 58.79 209.1 56.98 208.48 55.92 205.57 57.74 205.48 55.48 204.28 55.52 204.4 58.45 203.14 59.2 202.99 54.8 201.8 54.86 201.98 59.95 201.21 60.42 201.12 58.16 199.92 58.2 200.01 61.1 196.46 63.33 196.46 58.57 198.97 57.13 198.39 56.07 196.46 57.17 196.46 56.27 200.81 53.79 200.23 52.7 196.46 54.86 196.46 53.36 198.97 51.95 198.39 50.89 196.46 51.98 196.46 48.51 195.25 48.51 195.25 52.08 193.26 50.86 192.65 51.89 195.25 53.48 195.25 54.89 191.64 52.7 191.02 53.77 195.25 56.29 195.25 57.26 193.26 56.05 192.65 57.11 195.25 58.67 195.25 63.45 191.39 61.55 191.24 58.6 190.03 58.7 190.16 60.92 189.36 60.52 189.09 55.45 187.88 55.52 188.13 59.92 186.82 59.3 186.66 56.36 185.46 56.42 185.59 58.67 182.52 57.17 182 58.26 185.12 59.8 183.19 61.1 183.87 62.13 186.38 60.42 187.61 61.05 184.11 63.38 184.79 64.42 188.87 61.64 189.73 62.04 187.77 63.38 188.44 64.39 190.95 62.67 194.61 64.48 191.06 66.64 188.57 65.17 187.99 66.23 189.88 67.36 189.11 67.83 184.79 65.3 184.18 66.36 187.95 68.55 186.69 69.32 184.2 67.85 183.62 68.92 185.53 70.04 182.61 71.82 183.22 72.89 186.24 71.05 186.24 73.42 187.43 73.38 187.43 70.29 188.6 69.58 188.62 73.86 189.83 73.86 189.79 68.86 190.59 68.36 190.59 70.73 191.82 70.7 191.76 67.63 195.25 65.48 195.25 69.1 192.65 70.66 193.26 71.73 195.25 70.51 195.25 71.49 191.02 74.01 191.64 75.07 195.25 72.89 195.25 74.3 192.65 75.88 193.26 76.91 195.25 75.7 195.25 79.26 196.46 79.26 196.46 75.83 198.39 76.89 198.97 75.83 196.46 74.41 196.46 72.92 200.23 75.04 200.81 73.99 196.46 71.51 196.46 70.64 198.39 71.69 198.97 70.64 196.46 69.19 196.46 65.39 200.2 67.23 200.47 70.29 201.67 70.2 201.46 67.85 202.31 68.26 202.72 73.23 203.91 73.14 203.54 68.88 204.8 69.48 205.05 72.57 206.24 72.45 206.06 70.11 209.19 71.64 209.71 70.55"/></g><g class="cls-30"><path class="cls-16" d="M157.51,540.15v.93l-.88.49-.16.06-.59.34-.68-.4-.37-.21-.57-.35v-1.82l.66-.37.06,0,.9-.49.78.43.06,0,.75.43Zm-.65-3.33-.93-.56-.88.49-1.87,1.09-.66.37v3.9l.88.49,1.37.78,1.16.68.65-.37,1.82-1,1-.56v-3.89l-.79-.47Zm-.29,7.79-.49.27-.19.13-.93-.53-.35-.18-1.72-1,0,0-.81-.43h0l-.13-.06-.27-.16v-4.86l.58-.34.13-.06,2.59-1.49.78-.47.13-.06.28.16.78.44,2.31,1.33.85.49v4.82l-1,.59Zm22.31,5.57-5-2.42,3-2.07-1.12-1.61-3.87,2.73-2.19-1,5.84-4.15L174.34,540l-6.77,4.74-1.34-.66,3-2.07-1.12-1.6-3.91,2.72-1.83-.89-.28-.13,0-4.11v-.16l.06,0,1.6-1,4.42,2.35.94-1.73-3.4-1.8,1.3-.8,7.18,3.8.93-1.73L169,533.66l1.93-1.18,4.42,2.35.94-1.73-3.4-1.79,4.93-2.95-1-1.67L172,529.53l-.17-3.61-2,.06.16,4.7L168,531.92l-.26-7.08-2,0,.31,8.21-1.28.77-.16-3.62-2,.06.17,4.7-1.62,1-.19.13-4-2.29-.05,0v-2.84l4.14-2.29-1-1.73L157,528.64v-1.49l7.2-4-.93-1.71-6.27,3.4v-2.39l4.14-2.29-1-1.73L157,520.26V514.7h-2v5.69l-3.3-1.95-1,1.71,4.33,2.53v2.26l-6-3.5-1,1.71,7,4.11v1.52l-3.31-1.95-1,1.71,4.33,2.53v2.6l-4.58,2.66-.19.12-1.56-.74-.25-4.7-2,.13.21,3.58-1.3-.65-.59-8.2-2,.12.4,7.12-2.18-1.06-.26-4.69-2,.12.19,3.59L134,528.62l-.87,1.8,5.17,2.47-3.21,2.1,1.1,1.63,4.18-2.75,2,1-5.79,3.8,1.09,1.64,6.77-4.45,1.41.67-3.25,2.07,1.1,1.64,4.22-2.75,1.83.9,0,4v.43l-1.72,1L144,541.52l-1,1.7,3.15,1.8-1.28.78-7.17-4.08-1,1.71L142.9,547l-2.06,1.24-4.11-2.35-1,1.71,3.15,1.8-4.83,2.83,1,1.67,4.93-2.95,0,3.81,2,0,0-5,1.93-1.18.06,6.9,2,0-.05-8.05,1.3-.8,0,3.81,2,0,0-5,1.74-1.06h0l3.53,2,.44.25v1.18l-4.34,2.53,1,1.71,3.3-1.95v1.52l-7,4.12,1,1.71,6-3.5v2.26l-4.33,2.53,1,1.71,3.3-1.95v5.73h2v-5.57l3.17,1.73,1-1.73-4.14-2.29V554l6.27,3.44,1-1.73-7-4v-1.49l3.17,1.73,1-1.73L157,547.93v-1.36l4.14-2.38.35-.19,1.69.8.43,5,2-.16-.31-3.8,1.41.68.68,8,2-.16-.59-6.86,2.06,1,.44,4.95,2-.16-.35-3.8,5.18,2.47Z"/></g><g class="cls-31"><polygon class="cls-21" points="128.63 546.16 125.56 544.65 127.37 543.37 126.66 542.37 124.33 544.03 123.01 543.4 126.57 540.85 125.87 539.87 121.78 542.78 120.99 542.41 122.76 541.09 122.09 540.09 119.73 541.78 116.04 539.97 119.45 537.84 122.15 539.31 122.74 538.24 120.65 537.1 121.44 536.62 125.78 539 126.36 537.91 122.65 535.87 123.84 535.15 126.51 536.62 127.09 535.56 125.04 534.4 128.01 532.6 127.4 531.53 124.49 533.35 124.4 531.09 123.19 531.13 123.32 534.07 122.06 534.8 121.91 530.41 120.72 530.47 120.9 535.56 120.13 536.03 120.03 533.77 118.84 533.81 118.93 536.72 115.37 538.94 115.37 534.18 117.89 532.75 117.31 531.68 115.37 532.78 115.37 531.88 119.73 529.4 119.15 528.31 115.37 530.47 115.37 528.97 117.89 527.56 117.31 526.5 115.37 527.6 115.37 524.12 114.17 524.12 114.17 527.69 112.18 526.47 111.57 527.5 114.17 529.09 114.17 530.5 110.55 528.31 109.94 529.38 114.17 531.9 114.17 532.87 112.18 531.66 111.57 532.72 114.17 534.28 114.17 539.06 110.3 537.15 110.16 534.22 108.95 534.31 109.08 536.53 108.28 536.13 108.01 531.05 106.8 531.13 107.05 535.53 105.73 534.91 105.58 531.97 104.38 532.03 104.51 534.28 101.44 532.78 100.92 533.87 104.04 535.41 102.11 536.72 102.79 537.75 105.3 536.03 106.53 536.66 103.03 539 103.71 540.02 107.79 537.25 108.64 537.65 106.69 539 107.36 540 109.87 538.28 113.53 540.09 109.97 542.25 107.48 540.78 106.91 541.84 108.8 542.96 108.03 543.44 103.71 540.9 103.1 541.97 106.87 544.16 105.61 544.93 103.12 543.46 102.54 544.53 104.45 545.65 101.53 547.43 102.14 548.5 105.16 546.66 105.16 549.03 106.35 548.99 106.35 545.9 107.52 545.19 107.54 549.47 108.75 549.47 108.71 544.47 109.51 543.97 109.51 546.34 110.74 546.31 110.68 543.24 114.17 541.09 114.17 544.71 111.57 546.27 112.18 547.34 114.17 546.12 114.17 547.1 109.94 549.62 110.55 550.68 114.17 548.5 114.17 549.91 111.57 551.49 112.18 552.52 114.17 551.31 114.17 554.87 115.37 554.87 115.37 551.44 117.31 552.5 117.89 551.44 115.37 550.02 115.37 548.53 119.15 550.65 119.73 549.6 115.37 547.12 115.37 546.25 117.31 547.3 117.89 546.25 115.37 544.8 115.37 541 119.11 542.84 119.39 545.9 120.59 545.81 120.38 543.46 121.23 543.87 121.64 548.84 122.83 548.75 122.46 544.49 123.72 545.09 123.97 548.18 125.16 548.06 124.98 545.72 128.1 547.25 128.63 546.16"/></g><g class="cls-32"><polygon class="cls-21" points="210.32 546.16 207.25 544.65 209.06 543.37 208.35 542.37 206.02 544.03 204.7 543.4 208.26 540.85 207.56 539.87 203.48 542.78 202.68 542.41 204.45 541.09 203.78 540.09 201.42 541.78 197.74 539.97 201.15 537.84 203.84 539.31 204.43 538.24 202.34 537.1 203.14 536.62 207.47 539 208.05 537.91 204.34 535.87 205.53 535.15 208.21 536.62 208.78 535.56 206.73 534.4 209.71 532.6 209.09 531.53 206.18 533.35 206.09 531.09 204.89 531.13 205.01 534.07 203.75 534.8 203.6 530.41 202.41 530.47 202.59 535.56 201.82 536.03 201.73 533.77 200.53 533.81 200.62 536.72 197.06 538.94 197.06 534.18 199.58 532.75 199 531.68 197.06 532.78 197.06 531.88 201.42 529.4 200.84 528.31 197.06 530.47 197.06 528.97 199.58 527.56 199 526.5 197.06 527.6 197.06 524.12 195.86 524.12 195.86 527.69 193.87 526.47 193.26 527.5 195.86 529.09 195.86 530.5 192.25 528.31 191.63 529.38 195.86 531.9 195.86 532.87 193.87 531.66 193.26 532.72 195.86 534.28 195.86 539.06 192 537.15 191.85 534.22 190.64 534.31 190.77 536.53 189.97 536.13 189.7 531.05 188.5 531.13 188.75 535.53 187.43 534.91 187.27 531.97 186.07 532.03 186.2 534.28 183.13 532.78 182.61 533.87 185.73 535.41 183.8 536.72 184.48 537.75 186.99 536.03 188.22 536.66 184.72 539 185.4 540.02 189.48 537.25 190.34 537.65 188.38 539 189.05 540 191.56 538.28 195.22 540.09 191.67 542.25 189.18 540.78 188.6 541.84 190.5 542.96 189.72 543.44 185.4 540.9 184.79 541.97 188.56 544.16 187.3 544.93 184.81 543.46 184.23 544.53 186.14 545.65 183.22 547.43 183.83 548.5 186.85 546.66 186.85 549.03 188.04 548.99 188.04 545.9 189.21 545.19 189.23 549.47 190.44 549.47 190.4 544.47 191.2 543.97 191.2 546.34 192.43 546.31 192.37 543.24 195.86 541.09 195.86 544.71 193.26 546.27 193.87 547.34 195.86 546.12 195.86 547.1 191.63 549.62 192.25 550.68 195.86 548.5 195.86 549.91 193.26 551.49 193.87 552.52 195.86 551.31 195.86 554.87 197.06 554.87 197.06 551.44 199 552.5 199.58 551.44 197.06 550.02 197.06 548.53 200.84 550.65 201.42 549.6 197.06 547.12 197.06 546.25 199 547.3 199.58 546.25 197.06 544.8 197.06 541 200.81 542.84 201.08 545.9 202.28 545.81 202.07 543.46 202.92 543.87 203.33 548.84 204.52 548.75 204.15 544.49 205.41 545.09 205.66 548.18 206.85 548.06 206.67 545.72 209.8 547.25 210.32 546.16"/></g></g></g><rect class="cls-33" x="7.17" y="5.6" width="299.67" height="591.87"/><rect class="cls-34" x="303.22" y="5.6" width="295.9" height="296.06"/><rect class="cls-35" x="303.22" y="305.42" width="295.9" height="292.06"/><g id="Layer_3" data-name="Layer 3"><rect class="cls-33" x="37.33" y="230.67" width="246" height="107"/><path class="cls-36" d="M431.94,102.91l-.17,37.84c-1.11,1.84-2.95,2.52-4.86,3.21-17.09,6.19-23.4,24.31-14,39.91,1.09,1.81,2.77,3.43,2.15,5.88l-22.16,22.16c-2.72-.21-2.7-2.57-3.23-4.33C385,191.78,375.27,181,359,176.68c-1.73-.46-3.65-.82-4-3.1,5.14-6.46,12.22-11.12,16.77-18.11A24.66,24.66,0,0,0,376,141.7c0-12.92,0-25.86,0-38.79"/><path class="cls-37" d="M354.94,173.58c6,2.22,12.37,3.14,17.86,7,10.62,7.54,17.24,17.34,19.26,30.23.06.39.57.72.88,1.07-5.6,6.52-11.63,11.71-20.77,13.44-13.64,2.6-30-9.77-30.48-23.28C341.28,189.84,345.65,180.82,354.94,173.58Z"/><path class="cls-38" d="M415.1,189.75c-9.7-9.92-10.63-25.3-4.4-35.32,4.88-7.86,12.08-12.16,21.07-13.68-.76,8.45,1.77,16.82.31,25.36a26.49,26.49,0,0,1-5.72,12.54C423,182.7,418.89,186.08,415.1,189.75Z"/><rect class="cls-37" x="364.41" y="77.67" width="78.93" height="25.25" rx="6.07" ry="6.07"/><path class="cls-39" d="M555.27,113.6a40.18,40.18,0,0,1-11.67,17.73,36.88,36.88,0,0,1-5.1,3.69c0-2.66-.11-5.34-.17-8l-.18-7.58c.79-1.12,1.85-2.67,3-4.56a42.17,42.17,0,0,0,2.67-4.66,57.41,57.41,0,0,0,3.48-10.29v-.06c.11-.63.31-1.75.64-1.87.53-.2,1.81,2,2,2.37,1.42,2,2.46,3.7,3.18,4.94a17.74,17.74,0,0,1,1.19,2.34,12.73,12.73,0,0,1,1,4.72A11.64,11.64,0,0,1,555.27,113.6Z"/><path class="cls-40" d="M556.52,155.56a61.26,61.26,0,0,1-18,10.46V153a67.21,67.21,0,0,0,9.9-6.8,68.35,68.35,0,0,0,8.06-7.87Z"/><path class="cls-37" d="M556.55,189c-5.28,4.75-11.51,7.68-18,10V186c7.08-2.75,12.53-7.92,18-13Z"/><path class="cls-39" d="M517.92,102.62c-.64-2.93-1.39-6-2.29-9.21s-1.79-6-2.74-8.8c1.33-.13,2.73-.21,4.19-.26a67.61,67.61,0,0,1,8.4.3A82.62,82.62,0,0,1,528,93.26c1.12,4.78.14,2.55,1.29,9.37.13.77.44,2.54-.18,2.84-.32.16-.81-.15-1.16-.43-1.49-.51-3.14-1-4.94-1.44S519.49,102.85,517.92,102.62Z"/><path class="cls-39" d="M500.21,115.79c-2.53-1.32-5.36-2.67-8.49-3.94s-6-2.25-8.7-3.06c.86-2.06,1.67-3.77,2.31-5.06a23.66,23.66,0,0,1,2.19-3.75,20.41,20.41,0,0,1,1.81-2.12,54.84,54.84,0,0,1,9.4,3.9,55.4,55.4,0,0,1,7.76,5,35.73,35.73,0,0,0-3.34,4.06A36.79,36.79,0,0,0,500.21,115.79Z"/><path class="cls-37" d="M538.5,219c7.58-2,12.63-7.81,18.09-13,0,4.15.23,8.3.12,12.43a9,9,0,0,1-8.63,8.57C542.6,227.21,539,224.22,538.5,219Z"/><path class="cls-39" d="M532.86,531.13h-28c-2.55-2.13-2.06-5.1-2.06-7.87-.05-22.93,0-45.86,0-68.78,0-1.66,0-3.33,0-5,0-3.16-1.23-5-4.64-5.12-2-.06-4-.24-5.24-2.23-10.4-5.9-11.41-15.75-7.83-23.29,2.72-5.75,7.07-9.57,13.5-10.52,8.36-1.24,15.17,1.09,19.33,9,.45.85.92,1.7,1.64,3,3.4-10.49,11.07-13.25,20.82-12,6.26.8,12.92,7.25,14.42,13.69,1.86,8-1.22,14.92-8.88,20.11-1,1.61-2.56,1.93-4.25,2.16-6.6.94-6.64.95-6.65,7.69q0,34.14,0,68.28,0,3-.06,6A6,6,0,0,1,532.86,531.13Z"/><path class="cls-41" d="M532.86,531.13c0-28.08.07-56.16-.09-84.24,0-3.68.83-5.08,4.64-4.66a66.27,66.27,0,0,0,8.45-.09c8.81.05,17.61.2,26.42.12,4.55,0,6.69,1.9,6.6,6.48-.09,5.15-.07,10.31,0,15.46,0,3.19-1.24,5.32-4.58,5-3.69-.33-3.46,1.83-3.46,4.28q.06,24.93,0,49.87c0,6.85-1.1,7.94-8.09,7.91C552.8,531.27,542.83,531.19,532.86,531.13Z"/><path class="cls-42" d="M492.86,442.14l1,.14c3.56.4,8.45-1.63,10.37,1,1.78,2.38.63,7,.63,10.63q0,38.64,0,77.26c-10.33.06-20.65.14-31,.16-4.17,0-6.16-1.71-6.1-6.32.21-17.16,0-34.32.14-51.48,0-3.09-.56-4.62-4.05-4.25s-5.08-1.61-5-5.12c.08-5.16.27-10.34,0-15.49s2.31-6.33,6.59-6.34C474.54,442.27,483.7,442.19,492.86,442.14Z"/><path class="cls-35" d="M512.67,431.16c1.55,4.41-3.62,4.11-4.59,3.88-3.48-.84-7.16,0-10.52-1.63-3.69-1.81-6.36-4.19-5.81-8.62.58-4.64,5.55-9.18,10.44-9.34,4.11-.14,6.74,2.64,8,6.1C511.33,424.51,513,427.45,512.67,431.16Z"/><path class="cls-35" d="M526.81,430.11a21.55,21.55,0,0,1,3.46-11.37c2.34-3.32,5.47-5.38,10-3.22,3.9,1.86,8,6.63,7.25,9.77-1.08,4.33-3.81,7.9-8.34,8.06-3.09.11-6,1.72-9.44.52C527.35,433,526.45,432.53,526.81,430.11Z"/></g></g><g id="words_and_rectangles" data-name="words and rectangles"><text class="cls-43" transform="translate(41 279.57) scale(1 1.21)">THE HOLIDAY<tspan class="cls-44"><tspan x="0" y="42.97">EXTRAVGANZA</tspan></tspan></text><rect class="cls-33" x="48.33" y="170.31" width="212" height="57.36"/><text class="cls-45" transform="translate(71 195.98)"><tspan class="cls-46">W</tspan><tspan x="16.57" y="0">AKE UP</tspan><tspan class="cls-47" x="80.34" y="0"> </tspan><tspan x="84.04" y="0" xml:space="preserve">WITH  US</tspan></text><rect class="cls-33" x="37.33" y="359.67" width="231" height="36"/><text class="cls-48" transform="translate(41 416.03)">A<tspan class="cls-49" x="9.79" y="0">P</tspan><tspan x="16.96" y="0">AIT/</tspan><tspan class="cls-50" x="44.02" y="0">T</tspan><tspan x="52.61" y="0">WC | DEC. 21 | 11</tspan><tspan class="cls-51" x="163.98" y="0">A</tspan><tspan x="173.71" y="0">M-6</tspan><tspan class="cls-52" x="199.69" y="0">P</tspan><tspan x="208.01" y="0">M</tspan></text></g><g id="Layer_2" data-name="Layer 2"><path class="cls-38" d="M538.22,120a30.48,30.48,0,0,0-3.6-7.89,30.15,30.15,0,0,0-5.91-6.74c0-.84,0-2,0-3.44a48.07,48.07,0,0,0-1.6-10.38,58.51,58.51,0,0,0-2.21-7,33.8,33.8,0,0,1,23.37,13.56c-.25,1.24-.62,3-1.19,4.94a48.29,48.29,0,0,1-2.83,7.92A37.81,37.81,0,0,1,538.22,120Z"/><path class="cls-36" d="M555.36,112a24.14,24.14,0,0,1,1.29,6,28.48,28.48,0,0,1,.06,3.22c-.11,7.11.18,8.11-.06,14.25,0,1.21-.11,2.28-.16,3.18a46,46,0,0,1-18.09,14.66q0-9.51,0-19a49,49,0,0,0,4.92-4.15,49.56,49.56,0,0,0,6-6.9A50.15,50.15,0,0,0,555.36,112Z"/><path class="cls-36" d="M488.92,98.33a33,33,0,0,1,24.25-13.75,46.3,46.3,0,0,1,4.75,18,26.34,26.34,0,0,0-6.15,1.49,25.72,25.72,0,0,0-5.28,2.68,58.84,58.84,0,0,0-17.57-8.46Z"/><path class="cls-38" d="M500.34,115.67a20.88,20.88,0,0,0-1.09,4.75,16,16,0,0,0-.12,1.67,11.84,11.84,0,0,1-.05,2.66,10.18,10.18,0,0,1-5.75,6.92,8.27,8.27,0,0,1-5.68.8,10,10,0,0,1-3.32-1.8,15.07,15.07,0,0,1-2.33-2.25c-2.81-3.57-1.48-10-.75-13.59a41.16,41.16,0,0,1,2-6.73,41.9,41.9,0,0,1,17.08,7.57Z"/><path class="cls-38" d="M538.36,186.45V164.79a61.47,61.47,0,0,0,18.22-10.62l0,19.5a48.48,48.48,0,0,1-18.25,12.78Z"/><path class="cls-36" d="M556.61,188.39l0,18.68a43,43,0,0,1-18.25,12.47c0-.8-.05-1.5-.06-2.09s0-1.22,0-2c0-1.24,0-1.73,0-2.53,0-1.64,0-7.31.12-15a67.66,67.66,0,0,0,10-4.31A66.3,66.3,0,0,0,556.61,188.39Z"/></g><g id="stocking"><line class="cls-3" x1="418.52" y1="103.39" x2="431.27" y2="128.8"/><line class="cls-3" x1="398.88" y1="102.91" x2="422.54" y2="143.9"/><line class="cls-3" x1="383.26" y1="102.91" x2="411.98" y2="152.66"/><line class="cls-3" x1="375.93" y1="124.52" x2="414.14" y2="190.71"/><line class="cls-3" x1="373.08" y1="153.14" x2="401.68" y2="202.67"/><line class="cls-3" x1="363.93" y1="164.35" x2="373.27" y2="180.51"/><line class="cls-3" x1="369.43" y1="177.97" x2="411.11" y2="153.9"/><line class="cls-3" x1="382.85" y1="189.6" x2="407.35" y2="175.45"/><line class="cls-3" x1="389.55" y1="201.35" x2="412.6" y2="188.04"/><line class="cls-3" x1="386.37" y1="194.69" x2="408.93" y2="181.67"/><line class="cls-3" x1="368.18" y1="160.02" x2="395.1" y2="209.75"/><line class="cls-3" x1="378.05" y1="184.17" x2="405.66" y2="168.23"/><line class="cls-3" x1="375.54" y1="125.86" x2="415.58" y2="102.91"/><line class="cls-3" x1="375.54" y1="115.47" x2="397.29" y2="102.91"/><line class="cls-3" x1="375.93" y1="134.62" x2="431.64" y2="102.46"/><line class="cls-3" x1="354.94" y1="173.58" x2="431.27" y2="128.8"/><line class="cls-3" x1="374.28" y1="151.19" x2="431.87" y2="117.94"/></g><g id="Layer_5" data-name="Layer 5"><path class="cls-35" d="M155.93,104.54v-7l-4.17,2.17-1.37-2.26a25.74,25.74,0,0,1,3.4-1.82c2-.72,2.55-2,2-4.08l-7.58,4.07-1.36-2.28c2.68-1.46,5.23-2.94,7.87-4.25a1.8,1.8,0,0,0,1.09-2.52l-4,2.1-1.39-2.25c1.6-.87,3.13-1.65,4.6-2.54a1.88,1.88,0,0,0,.88-1.21c.08-2.63,0-5.26,0-8.15-.92.43-1.7.79-2.47,1.17-1.64.8-3.26,1.65-4.92,2.42a1.52,1.52,0,0,0-1,1.62c.06,1.58,0,3.17,0,4.77H144.7V80.24c-1.13.19-1.81.54-1.79,1.82.06,2.91,0,5.81,0,8.76H140V82.65c-2.23.4-2.63.86-2.7,3.09,0,1.3-.12,2.6-.18,3.92H134.5V85.21l-3.29,1.6c-1,.49-2,1-3.15,1.58l-1.34-2.3,6.47-3.29-3.93-2.49,1.47-2.19c1.19.72,2.35,1.41,3.49,2.12,2.15,1.32,2.24,1.32,4.43-.36l-7.26-4.5,1.47-2.22,7.58,4.64c1.4.86,1.4.85,2.84-.22l-3.8-2.39L141,73c1.52.93,3,1.79,4.36,2.71a1.67,1.67,0,0,0,1.92.13c2.26-1.21,4.57-2.33,7-3.57-2.63-1.32-5-2.57-7.5-3.73a1.63,1.63,0,0,0-1.25.21c-1.5.86-3,1.79-4.57,2.77l-1.49-2.19,3.8-2.41a1.91,1.91,0,0,0-2.8-.29c-2.46,1.64-5,3.13-7.62,4.73l-1.48-2.22,7.2-4.46c-1.61-1.56-2.32-1.66-4.05-.6l-3.79,2.31-1.48-2.17,3.92-2.52-6.42-3.25L128,56.09l6.42,3.17V54.84l2.67-.13c.06,1.37.14,2.66.18,3.95.07,2.4.14,2.5,2.7,3.21V53.72l2.6-.19c.11,3,.29,5.82.29,8.67a1.73,1.73,0,0,0,1.78,2V60h2.84c0,1.53.05,3.1,0,4.67a1.59,1.59,0,0,0,1.08,1.72c2,.95,4,2,6,3,.36.18.74.32,1.27.54,0-2.89,0-5.61,0-8.32,0-.34-.46-.77-.81-1-1.49-.87-3-1.67-4.65-2.56l1.34-2.27,3.92,2.07c.42-1.68.42-1.68-1-2.43l-7.91-4.3,1.36-2.29,7.62,4.1c.32-2.8.32-2.8-1.84-4-1.08-.58-2.15-1.17-3.21-1.76-.07,0-.11-.15-.23-.33l1.25-2.11L155.93,47v-7h2.82v7l4.08-2.13L164.18,47a24.9,24.9,0,0,1-3.34,1.81c-1.94.72-2.58,2-2,4.07l7.56-4,1.34,2.29c-2.65,1.44-5.21,2.91-7.85,4.24a1.78,1.78,0,0,0-1.06,2.49l4-2.06,1.37,2.25c-1.55.85-3.07,1.65-4.55,2.5-.37.21-.88.61-.88.93-.08,2.76,0,5.51,0,8.51,2.76-1.37,5.32-2.63,7.84-4,.26-.14.41-.69.44-1.07.12-1.68.18-3.36.26-5h2.62v4.29a1.86,1.86,0,0,0,1.85-2.15c0-2.81.16-5.61.26-8.56l2.6.15v8.11c2.32-.4,2.7-.84,2.74-3.11,0-1.17.05-2.35.08-3.52a1.46,1.46,0,0,1,.11-.36h2.63v4.44l6.41-3.17,1.3,2.31-6.48,3.28,4,2.48-1.51,2.2a26.82,26.82,0,0,1-3.23-2c-1.61-1.35-3.07-1.22-4.67.25l7.27,4.52-1.49,2.2c-2.57-1.57-5.08-3-7.5-4.64-1.05-.69-1.91-.86-2.92.22l3.82,2.39-1.51,2.19c-1.59-1-3.09-1.92-4.64-2.8a1.58,1.58,0,0,0-1.25-.14c-2.4,1.14-4.78,2.37-7.41,3.7,2.66,1.34,5.13,2.6,7.62,3.8.28.13.8-.09,1.12-.28,1.5-.88,3-1.8,4.55-2.77l1.51,2.18-3.79,2.41a1.9,1.9,0,0,0,2.84.25c2.42-1.6,4.94-3.07,7.54-4.67l1.51,2.2L176,79.83c1.64,1.6,2.28,1.69,4.06.59l3.75-2.3,1.54,2.17-4,2.5,6.44,3.29-1.26,2.3-6.43-3.16v4.44h-2.81c0-1.21,0-2.41,0-3.62,0-2.61,0-2.61-2.74-3.45v8.2l-2.57.15c-.09-1.82-.18-3.58-.25-5.35a27,27,0,0,1,0-3.24c.11-1.39-.57-1.93-1.84-2.13v4.27l-2.61.12c-.09-1.72-.2-3.3-.23-4.89a1.57,1.57,0,0,0-1-1.63c-2.37-1.11-4.7-2.32-7.32-3.63,0,2.3.14,4.39-.05,6.45-.17,1.91.43,3.06,2.25,3.73a27,27,0,0,1,3.26,1.77l-1.32,2.25-4-2.06A1.78,1.78,0,0,0,160,89.11c2.64,1.32,5.2,2.79,7.83,4.22l-1.36,2.28-7.54-4c-.47,2.73-.47,2.72,1.86,4l3.08,1.69a2.64,2.64,0,0,1,.3.3l-1.28,2.16-4.09-2.14v7Z"/><path class="cls-35" d="M230.71,562.53v-4.64L228,559.32l-.91-1.49a17.27,17.27,0,0,1,2.26-1.21,1.9,1.9,0,0,0,1.28-2.69l-5,2.69-.9-1.51c1.77-1,3.46-2,5.21-2.81a1.19,1.19,0,0,0,.71-1.67L228,552l-.91-1.49c1-.57,2.06-1.09,3-1.68a1.22,1.22,0,0,0,.59-.8c.05-1.74,0-3.48,0-5.39-.6.29-1.12.52-1.62.77-1.09.53-2.16,1.1-3.26,1.61a1,1,0,0,0-.68,1.06c0,1,0,2.1,0,3.16h-1.86v-2.81c-.74.12-1.2.35-1.18,1.21,0,1.92,0,3.84,0,5.79h-1.94V548c-1.47.27-1.74.57-1.78,2.05,0,.86-.08,1.72-.12,2.59h-1.73v-2.94l-2.18,1-2.09,1.05-.88-1.52,4.28-2.18-2.6-1.65,1-1.44,2.31,1.4c1.42.87,1.48.87,2.93-.24l-4.8-3,1-1.48,5,3.08c.93.56.93.56,1.88-.15l-2.51-1.58,1-1.47c1,.62,2,1.18,2.88,1.79a1.1,1.1,0,0,0,1.27.09c1.5-.8,3-1.54,4.66-2.36-1.73-.88-3.33-1.7-5-2.47a1.07,1.07,0,0,0-.82.14c-1,.57-2,1.18-3,1.83l-1-1.45,2.51-1.59a1.26,1.26,0,0,0-1.85-.19c-1.62,1.08-3.31,2.06-5,3.13l-1-1.47,4.77-3c-1.07-1-1.54-1.1-2.69-.4l-2.5,1.53-1-1.44,2.59-1.66L211.42,532l.83-1.54,4.25,2.11v-2.93l1.76-.09c.05.91.1,1.76.13,2.61,0,1.6.09,1.66,1.78,2.13v-5.39l1.72-.13c.08,2,.19,3.85.2,5.73,0,.86.32,1.25,1.17,1.34v-2.78h1.88c0,1,0,2,0,3.09a1,1,0,0,0,.72,1.13c1.35.64,2.66,1.33,4,2,.24.12.49.21.84.36,0-1.92,0-3.71,0-5.51,0-.22-.3-.51-.53-.64-1-.58-2-1.11-3.08-1.7l.89-1.5,2.59,1.37c.28-1.11.28-1.11-.64-1.61l-5.23-2.84.9-1.52,5,2.71c.22-1.85.21-1.85-1.22-2.63-.71-.39-1.42-.77-2.12-1.17-.05,0-.07-.09-.15-.22L228,523l2.76,1.46V519.8h1.87v4.6l2.69-1.41.89,1.49a17.62,17.62,0,0,1-2.2,1.2,1.91,1.91,0,0,0-1.31,2.69l5-2.67.89,1.51c-1.75.95-3.45,1.93-5.19,2.8a1.19,1.19,0,0,0-.71,1.65l2.63-1.36.9,1.49c-1,.56-2,1.08-3,1.65-.24.14-.58.4-.58.62-.05,1.82,0,3.64,0,5.63,1.83-.92,3.52-1.74,5.18-2.62.18-.09.28-.46.29-.71.09-1.11.12-2.22.18-3.32h1.73v2.84a1.22,1.22,0,0,0,1.22-1.42c0-1.86.11-3.72.17-5.67l1.73.11v5.36c1.53-.27,1.78-.55,1.81-2.06,0-.78,0-1.55,0-2.33a.93.93,0,0,1,.07-.24h1.74v2.94l4.24-2.09.86,1.52-4.28,2.17,2.62,1.65-1,1.45a17.71,17.71,0,0,1-2.14-1.33,2.07,2.07,0,0,0-3.09.16l4.81,3-1,1.46c-1.7-1-3.36-2-5-3.07a1.28,1.28,0,0,0-1.93.15l2.52,1.57-1,1.46c-1.05-.64-2.05-1.27-3.07-1.85a1.07,1.07,0,0,0-.83-.1c-1.59.76-3.16,1.57-4.9,2.45,1.76.88,3.39,1.72,5,2.51a1,1,0,0,0,.74-.19c1-.58,2-1.19,3-1.83l1,1.45-2.51,1.59a1.26,1.26,0,0,0,1.88.17c1.6-1.06,3.27-2,5-3.09l1,1.45-4.77,3c1.08,1.05,1.51,1.11,2.68.39l2.49-1.52,1,1.43-2.61,1.66,4.26,2.17-.83,1.53-4.26-2.09v2.93h-1.86c0-.8,0-1.59,0-2.39,0-1.73,0-1.73-1.81-2.29v5.43l-1.71.1c-.05-1.21-.11-2.37-.16-3.54a19.1,19.1,0,0,1,0-2.14c.07-.92-.38-1.28-1.22-1.41v2.82l-1.73.08c0-1.14-.13-2.18-.15-3.23a1,1,0,0,0-.66-1.08c-1.57-.74-3.11-1.54-4.84-2.41,0,1.53.09,2.91,0,4.27a2.07,2.07,0,0,0,1.48,2.47,17,17,0,0,1,2.16,1.17l-.87,1.49-2.64-1.36a1.18,1.18,0,0,0,.72,1.66c1.75.87,3.44,1.84,5.18,2.79l-.9,1.51-5-2.67c-.31,1.8-.31,1.8,1.23,2.63l2,1.12s.09.08.2.19l-.85,1.43-2.7-1.41v4.62Z"/><path class="cls-35" d="M77.81,562.53v-4.64l-2.76,1.43-.91-1.49a17.84,17.84,0,0,1,2.25-1.21,1.91,1.91,0,0,0,1.29-2.69l-5,2.69-.9-1.51c1.77-1,3.46-2,5.21-2.81a1.19,1.19,0,0,0,.71-1.67L75.06,552l-.92-1.49c1.06-.57,2.07-1.09,3-1.68a1.18,1.18,0,0,0,.58-.8c.06-1.74,0-3.48,0-5.39l-1.63.77c-1.08.53-2.15,1.1-3.25,1.61a1,1,0,0,0-.68,1.06c0,1,0,2.1,0,3.16H70.38v-2.81c-.75.12-1.2.35-1.18,1.21,0,1.92,0,3.84,0,5.79H67.27V548c-1.48.27-1.74.57-1.79,2.05,0,.86-.08,1.72-.12,2.59H63.63v-2.94l-2.17,1-2.09,1.05-.88-1.52,4.28-2.18-2.6-1.65,1-1.44,2.31,1.4c1.42.87,1.48.87,2.93-.24l-4.81-3,1-1.48,5,3.08c.92.56.93.56,1.88-.15l-2.51-1.58,1-1.47c1,.62,2,1.18,2.88,1.79a1.1,1.1,0,0,0,1.27.09c1.49-.8,3-1.54,4.66-2.36-1.74-.88-3.33-1.7-5-2.47a1.1,1.1,0,0,0-.83.14c-1,.57-2,1.18-3,1.83l-1-1.45,2.52-1.59a1.28,1.28,0,0,0-1.86-.19c-1.62,1.08-3.31,2.06-5,3.13l-1-1.47,4.76-3c-1.06-1-1.53-1.1-2.68-.4l-2.51,1.53-1-1.44,2.59-1.66L58.52,532l.83-1.54,4.25,2.11v-2.93l1.76-.09c0,.91.1,1.76.12,2.61,0,1.6.09,1.66,1.79,2.13v-5.39l1.72-.13c.07,2,.19,3.85.19,5.73,0,.86.33,1.25,1.18,1.34v-2.78h1.88c0,1,0,2,0,3.09a1,1,0,0,0,.71,1.13c1.35.64,2.67,1.33,4,2,.24.12.49.21.84.36,0-1.92,0-3.71,0-5.51,0-.22-.3-.51-.54-.64-1-.58-2-1.11-3.08-1.7l.9-1.5,2.59,1.37c.27-1.11.27-1.11-.64-1.61l-5.23-2.84.9-1.52,5,2.71c.21-1.85.21-1.85-1.22-2.63-.71-.39-1.42-.77-2.12-1.17-.05,0-.07-.09-.15-.22L75,523l2.77,1.46V519.8h1.86v4.6l2.7-1.41.89,1.49a17,17,0,0,1-2.21,1.2,1.91,1.91,0,0,0-1.3,2.69l5-2.67.89,1.51c-1.76.95-3.45,1.93-5.19,2.8a1.19,1.19,0,0,0-.71,1.65l2.63-1.36.9,1.49c-1,.56-2,1.08-3,1.65-.24.14-.58.4-.58.62-.05,1.82,0,3.64,0,5.63,1.82-.92,3.51-1.74,5.18-2.62.18-.09.27-.46.29-.71.08-1.11.12-2.22.18-3.32H87v2.84a1.22,1.22,0,0,0,1.22-1.42c0-1.86.1-3.72.17-5.67l1.72.11v5.36c1.54-.27,1.79-.55,1.82-2.06,0-.78,0-1.55.05-2.33a.93.93,0,0,1,.07-.24h1.74v2.94l4.24-2.09.86,1.52-4.29,2.17,2.63,1.65-1,1.45a19.42,19.42,0,0,1-2.14-1.33,2.07,2.07,0,0,0-3.09.16l4.82,3-1,1.46c-1.7-1-3.36-2-5-3.07a1.28,1.28,0,0,0-1.93.15l2.52,1.57-1,1.46c-1-.64-2-1.27-3.06-1.85a1.07,1.07,0,0,0-.83-.1c-1.59.76-3.16,1.57-4.9,2.45,1.76.88,3.39,1.72,5,2.51.18.08.52-.06.74-.19,1-.58,2-1.19,3-1.83l1,1.45L88,544.69a1.26,1.26,0,0,0,1.88.17c1.6-1.06,3.27-2,5-3.09l1,1.45-4.77,3c1.08,1.05,1.5,1.11,2.68.39l2.48-1.52,1,1.43-2.61,1.66,4.26,2.17-.84,1.53-4.25-2.09v2.93H92c0-.8,0-1.59,0-2.39,0-1.73,0-1.73-1.81-2.29v5.43l-1.71.1c0-1.21-.11-2.37-.16-3.54a17,17,0,0,1,0-2.14c.08-.92-.37-1.28-1.21-1.41v2.82l-1.73.08c-.06-1.14-.13-2.18-.15-3.23a1,1,0,0,0-.66-1.08c-1.57-.74-3.11-1.54-4.85-2.41,0,1.53.1,2.91,0,4.27a2.07,2.07,0,0,0,1.48,2.47,17,17,0,0,1,2.16,1.17L82.39,552l-2.64-1.36a1.18,1.18,0,0,0,.72,1.66c1.74.87,3.44,1.84,5.17,2.79l-.89,1.51-5-2.67c-.31,1.8-.31,1.8,1.23,2.63l2,1.12s.08.08.19.19l-.84,1.43-2.71-1.41v4.62Z"/><path class="cls-41" d="M193.68,522.89h-7.76l6.56-6.55-2.93-2.94-9.49,9.49h-2.61l2.44-2.44L177,517.52l-5.38,5.37h-4.1a11.45,11.45,0,0,0-1.86-4.49l2.9-2.9h7.6v-4.15h-3.45l1.84-1.84h13.42v-4.15h-9.27l5.48-5.48-2.93-2.94-5.48,5.48v-9.27h-4.15v13.42l-1.84,1.85V505h-4.15v7.61l-2.91,2.9a11.39,11.39,0,0,0-4.49-1.86V509.5l5.38-5.37-2.94-2.94-2.44,2.44V501l9.49-9.49-2.93-2.93-6.56,6.55v-7.75H154v7.75l-6.55-6.55-2.94,2.93L154,501v2.6l-2.44-2.44-2.93,2.94L154,509.5v4.11a11.31,11.31,0,0,0-4.49,1.86l-2.9-2.9V505H142.5v3.46l-1.84-1.85V493.15h-4.15v9.27L131,496.94l-2.94,2.94,5.48,5.48H124.3v4.15h13.42l1.85,1.84h-3.46v4.15h7.61l2.9,2.9a11.31,11.31,0,0,0-1.86,4.49h-4.11l-5.37-5.37-2.94,2.93,2.44,2.44h-2.6l-9.49-9.49-2.94,2.94,6.56,6.55h-7.75V527h7.75l-6.56,6.56,2.94,2.93,9.49-9.49h2.6l-2.44,2.44,2.94,2.94,5.37-5.38h4.11a11.25,11.25,0,0,0,1.86,4.49l-2.9,2.9h-7.61v4.15h3.46l-1.85,1.85H124.3v4.15h9.27l-5.48,5.48L131,553l5.48-5.48v9.27h4.15V543.36l1.84-1.84V545h4.15v-7.6l2.9-2.9a11.6,11.6,0,0,0,4.49,1.86v4.1l-5.37,5.38,2.93,2.93L154,546.3v2.6l-9.49,9.5,2.94,2.93,6.55-6.56v7.76h4.15v-7.76l6.56,6.56,2.93-2.93-9.49-9.49V546.3l2.44,2.44,2.94-2.93-5.38-5.38v-4.1a11.39,11.39,0,0,0,4.49-1.86l2.9,2.9V545h4.15v-3.45l1.85,1.84v13.42h4.15v-9.27l5.48,5.48,2.93-2.93-5.48-5.48h9.27v-4.15H174.51l-1.84-1.84h3.45v-4.16h-7.6l-2.9-2.9a11.39,11.39,0,0,0,1.86-4.49h4.1l5.38,5.38,2.93-2.94L177.45,527h2.6l9.5,9.49,2.93-2.93L185.92,527h7.76v-4.15Z"/><circle class="cls-53" cx="156.12" cy="524.97" r="6.5"/><path class="cls-41" d="M109.76,71.39h-3.2l2.71-2.71-1.21-1.22-3.93,3.93h-1.08l1-1-1.21-1.22-2.22,2.23h-1.7a4.71,4.71,0,0,0-.77-1.86l1.2-1.2h3.15V66.61h-1.43l.76-.76h5.55V64.14h-3.83l2.26-2.27-1.21-1.21-2.27,2.26V59.09h-1.71v5.55l-.77.76V64H98.15v3.15L97,68.32a4.71,4.71,0,0,0-1.86-.77v-1.7l2.22-2.22L96.1,62.41l-1,1V62.35L99,58.42,97.8,57.21l-2.71,2.71V56.71H93.38v3.21l-2.72-2.71-1.21,1.21,3.93,3.93v1.07l-1-1-1.22,1.22,2.23,2.22v1.7a4.71,4.71,0,0,0-1.86.77l-1.2-1.2V64H88.6V65.4l-.76-.76V59.09H86.12v3.83l-2.26-2.26-1.22,1.21,2.27,2.27H81.08v1.71h5.55l.76.76H86v1.72h3.15l1.19,1.2a4.85,4.85,0,0,0-.76,1.86h-1.7l-2.22-2.23L84.4,70.38l1,1H84.33l-3.92-3.93L79.2,68.68l2.71,2.71H78.7V73.1h3.21L79.2,75.81,80.41,77l3.92-3.93h1.08l-1,1,1.22,1.22,2.22-2.23h1.7A4.85,4.85,0,0,0,90.3,75l-1.19,1.2H86v1.72h1.43l-.76.76H81.08v1.71h3.83l-2.27,2.27,1.22,1.21,2.26-2.26V85.4h1.72V79.85l.76-.76v1.43h1.72V77.37l1.2-1.2a4.59,4.59,0,0,0,1.86.77v1.7l-2.23,2.22,1.22,1.21,1-1v1.07l-3.93,3.93,1.21,1.21,2.72-2.71v3.21h1.71V84.57l2.71,2.71L99,86.07l-3.93-3.93V81.07l1,1,1.21-1.22-2.22-2.22v-1.7A4.71,4.71,0,0,0,97,76.17l1.2,1.2v3.15h1.71V79.09l.77.76V85.4h1.71V81.57l2.27,2.26,1.21-1.21-2.26-2.27h3.83V78.64h-5.55l-.76-.76h1.43V76.16H99.36L98.16,75a4.71,4.71,0,0,0,.77-1.86h1.7l2.22,2.23,1.21-1.22-1-1h1.08L108.06,77l1.21-1.22-2.71-2.71h3.2V71.39Z"/><circle class="cls-53" cx="93.24" cy="72.24" r="2.69"/><path class="cls-41" d="M235.86,71.39h-3.2l2.71-2.71-1.21-1.22-3.93,3.93h-1.08l1-1L229,69.16l-2.22,2.23H225a4.71,4.71,0,0,0-.77-1.86l1.2-1.2h3.15V66.61h-1.43l.76-.76h5.55V64.14h-3.83l2.26-2.27-1.21-1.21-2.27,2.26V59.09h-1.71v5.55l-.77.76V64h-1.71v3.15l-1.2,1.2a4.71,4.71,0,0,0-1.86-.77v-1.7l2.22-2.22-1.21-1.22-1,1V62.35l3.93-3.93-1.22-1.21-2.71,2.71V56.71h-1.71v3.21l-2.72-2.71-1.21,1.21,3.93,3.93v1.07l-1-1-1.22,1.22,2.23,2.22v1.7a4.71,4.71,0,0,0-1.86.77l-1.2-1.2V64H214.7V65.4l-.76-.76V59.09h-1.72v3.83L210,60.66l-1.22,1.21L211,64.14h-3.83v1.71h5.55l.76.76h-1.43v1.72h3.15l1.19,1.2a4.85,4.85,0,0,0-.76,1.86h-1.7l-2.22-2.23-1.22,1.22,1,1h-1.08l-3.92-3.93-1.21,1.22L208,71.39H204.8V73.1H208l-2.71,2.71L206.51,77l3.92-3.93h1.08l-1,1,1.22,1.22,2.22-2.23h1.7A4.85,4.85,0,0,0,216.4,75l-1.19,1.2h-3.15v1.72h1.43l-.76.76h-5.55v1.71H211l-2.27,2.27L210,83.83l2.26-2.26V85.4h1.72V79.85l.76-.76v1.43h1.72V77.37l1.2-1.2a4.71,4.71,0,0,0,1.86.77v1.7l-2.23,2.22,1.22,1.21,1-1v1.07l-3.93,3.93,1.21,1.21,2.72-2.71v3.21h1.71V84.57l2.71,2.71,1.22-1.21-3.93-3.93V81.07l1,1,1.21-1.22-2.22-2.22v-1.7a4.71,4.71,0,0,0,1.86-.77l1.2,1.2v3.15H226V79.09l.77.76V85.4h1.71V81.57l2.27,2.26,1.21-1.21-2.26-2.27h3.83V78.64h-5.55l-.76-.76h1.43V76.16h-3.15l-1.2-1.2A4.71,4.71,0,0,0,225,73.1h1.7L229,75.33l1.21-1.22-1-1h1.08L234.16,77l1.21-1.22-2.71-2.71h3.2V71.39Z"/><circle class="cls-53" cx="219.32" cy="72.24" r="2.69"/></g><g id="border_paths" data-name="border paths"><rect class="cls-54" x="3.33" y="1.67" width="7.67" height="600"/><rect class="cls-54" x="3.33" y="593.29" width="600" height="8.37"/><rect class="cls-54" x="594.91" y="1.67" width="8.42" height="600"/><rect class="cls-54" x="3.33" y="1.67" width="600" height="7.87"/><rect class="cls-54" x="299.6" y="2.29" width="7.23" height="599.37"/><polygon class="cls-54" points="299.6 304.92 603.33 305.42 603.33 297.29 299.58 297.29 299.6 304.92"/><line class="cls-55" x1="11" y1="9.54" x2="11" y2="1.67"/><line class="cls-55" x1="299.6" y1="9.54" x2="306.83" y2="9.54"/><line class="cls-55" x1="594.91" y1="9.54" x2="594.91" y2="1.67"/><line class="cls-55" x1="594.91" y1="305.4" x2="594.91" y2="296.17"/><line class="cls-55" x1="306.83" y1="297.29" x2="306.83" y2="304.93"/><line class="cls-55" x1="299.6" y1="593.29" x2="306.83" y2="593.29"/><line class="cls-55" x1="594.33" y1="593.29" x2="603.33" y2="593.29"/><line class="cls-55" x1="11" y1="593.29" x2="11" y2="601.67"/></g><g id="ornament"><g id="ornament-2" data-name="ornament"><g id="Layer_10" data-name="Layer 10"><path class="cls-56" d="M405.74,495.51c-1-.79-1.92-1.59-3.61-3,2.85.32,3.83,1.1,3.51,3.11Z"/><path class="cls-42" d="M415.75,456.32a27.89,27.89,0,0,1,7.51,16.52c1.34,13.86,1.89,27.86-7.51,39.82A11.26,11.26,0,0,1,410,514q-37.22,0-74.42,0a9.16,9.16,0,0,1-5.68-1.51,45.47,45.47,0,0,1-8.17-23.6c-.82-11.72,1.25-22.71,8-32.57A11.58,11.58,0,0,1,336,455q37.07,0,74.13,0C412.09,455,414.1,454.85,415.75,456.32Z"/><path class="cls-36" d="M331.75,453.32c7.08-9.12,16.3-15.17,27.16-18.83,5.23-4.69,11.68-4,17.85-3.63,3.47.21,7.46.06,10,3.46,9.59,3.28,18.18,8.15,25.07,15.74.86.95,2.16,1.66,1.93,3.26-1.18,1.92-3.1,1.66-4.9,1.66h-72.2C334.84,455,332.92,455.24,331.75,453.32Z"/><path class="cls-36" d="M413.75,515.66c-11.84,14.71-27.36,21.43-46,19.68a49.77,49.77,0,0,1-35.87-19.85c1.28-1.81,3.22-1.49,5-1.49q36,0,71.91,0C410.64,514,412.57,513.73,413.75,515.66Z"/><path class="cls-39" d="M386.75,434.32a58.89,58.89,0,0,0-27.84.17c-.05-1.33-.15-2.66-.16-4,0-7,0-7.29,6.67-6.91,4.29.25,6.22-.81,5.36-5.32a7.09,7.09,0,0,1,.11-3,2.29,2.29,0,0,1,2.62-1.78c1.52.13,1.09,1.32,1.24,2.21.41,2.55-1.35,6,.93,7.46,1.76,1.15,4.85.39,7.34.27,2.84-.14,3.91,1.11,3.75,3.87C386.64,429.65,386.75,432,386.75,434.32Z"/><path class="cls-41" d="M331.75,453.32h82c1.19.65,2.2,1.42,2,3h-86C330.64,455.48,330.39,453.86,331.75,453.32Z"/><path class="cls-41" d="M413.75,515.66l-81.84-.17-2-3,85.84.17C414.85,513.5,415.11,515.12,413.75,515.66Z"/><path class="cls-33" d="M405.74,495.51c.05.5-.08,1.1.17,1.46,1.69,2.52,1,5.58-1.19,6.1-2.47.57-1.8-3.19-2.89-4.84-.31-.47,0-1.31-.1-2-.32-2.24-3.62-4.87-.89-6.47,2.57-1.51,6,.46,8.74,1.71,2.43,1.1,4.54,2.78,4.15,6-.12,1,.58,2.46-1,2.88a4,4,0,0,1-3.62-1c-1.39-1.1-1.15-3.6-3.44-3.81l-.26-.38Z"/><path class="cls-35" d="M340.64,495.54c-.57.74-1.16,1.48-1.71,2.24-1.23,1.68-2.41,4-4.91,2.27-2.66-1.82-1.37-4.57.09-6.05a14.76,14.76,0,0,1,11.48-4.4c1.6.08.08,1.18.21,1.79C345.07,494,344,496.15,340.64,495.54Z"/><path class="cls-33" d="M406.79,471.38a4,4,0,0,0,.87-.37c1.42-1.1,1.34-4,4.13-3.44a2.39,2.39,0,0,1,1.94,2.49c.14,2.59-.42,4.94-2.77,6.35-3.37,2-7.32,1.84-10.88,3.06-.8-3,2.53-1.17,2.56-2.93A6.09,6.09,0,0,1,406.79,471.38Z"/><path class="cls-33" d="M344.86,476.53c-.07,1.24,2.57.87,1.6,2.42-.75,1.18-1.66-.33-2.5-.33-3.6,0-6.52-1.45-9.25-3.64a5.39,5.39,0,0,1-2-5.2c.15-1.59,1.73-1.89,2.42-2,2.06-.29,2.94,1.43,3.76,3.09.32.64,1.16,1,1.77,1.5C343,472.81,344,474.59,344.86,476.53Z"/><path class="cls-33" d="M348.13,491a15,15,0,0,1,8.53,1.49c1.91.82,3.21,2.11,3.12,4.47,0,1.39-.17,2.76-1.53,3.31s-2.22-.73-2.73-1.62A22.78,22.78,0,0,0,348.13,491Z"/><path class="cls-33" d="M399.62,490.39c-4,2.83-6.92,4.83-8.05,8.51a2.26,2.26,0,0,1-3.64,1.14,3.06,3.06,0,0,1-.73-4.41C389.76,491.61,393.91,491,399.62,490.39Z"/><path class="cls-34" d="M350.28,478.41c2.82-2.38,5.58-4.66,7.37-8,.77-1.42,1.49-3.48,4-2.87a1.66,1.66,0,0,1,1.52,1.88c-.08,2.13.75,4.55-1.84,5.93A27.53,27.53,0,0,1,350.28,478.41Z"/><path class="cls-35" d="M398.73,477.73c-4.08.09-7.82-.25-10.71-3.38a4.15,4.15,0,0,1-1.16-4,2.28,2.28,0,0,1,2.11-1.79c1.89-.16,2.42,1.21,3.06,2.6C393.41,474.08,395.35,476.51,398.73,477.73Z"/><path class="cls-35" d="M406.79,471.38c-.34,2.55-2.17,3.91-4.15,5.16-.84-.24-2.68-.44-2.39-.69,2.46-2.06.65-5.15,2-7.27.66-1-.23-3.4,2.25-3,1.61.25,1.64,1.84,2.11,2.91A8.43,8.43,0,0,1,406.79,471.38Z"/><path class="cls-35" d="M358.92,485a14.38,14.38,0,0,1,7.67,4.83c.83.91,1.58,1.92,1,3s-2.23.92-3.12.58C360.65,492,358,489.6,358.92,485Z"/><path class="cls-34" d="M387.49,484.78c.41,6.85-1.84,9-8.64,8.32C379.75,488.21,383.68,486.64,387.49,484.78Z"/><path class="cls-35" d="M379.1,475.81c4.78-1.37,7.42.91,9.22,4.74.44.94.81,2-.17,2.65a2.83,2.83,0,0,1-2.31-.17A12.6,12.6,0,0,1,379.1,475.81Z"/><path class="cls-34" d="M359.18,483.54c-.46-6.38,2.05-8.54,8.35-7.54C365.93,480.43,365.93,480.43,359.18,483.54Z"/><path class="cls-33" d="M344.86,476.53c-2.6-.16-3.22-2.32-4.16-4.15,0-1.31,0-2.63.07-3.94.08-1-.54-2.41,1-2.85,1.89-.52,2.37,1.25,2.54,2.25.48,2.83.71,5.7,1.88,8.37Z"/><path class="cls-39" d="M376.74,484c.2,2.6-1.11,3.45-3.59,3.53s-3.22-1.74-3.26-3.38c-.05-2.17,1.46-3.58,3.82-3.65S376.86,481.87,376.74,484Z"/><path class="cls-35" d="M340.64,495.54l5.16-4.15c.33,3.89-1.14,7.46-2.1,11.11-.27,1-1.16,1-2,.87-1.16-.19-.91-1.18-1-1.93C340.68,499.47,340.68,497.5,340.64,495.54Z"/><path class="cls-34" d="M404.85,483.18c1.8-1.93,2.66-3.17,3.81-4,1.55-1.12,3.3-2.26,5.39-1.5a1.37,1.37,0,0,1,.5,2.1c-1.21,1.67-2.27,3.72-4.8,3.69C408.49,483.46,407.23,483.33,404.85,483.18Z"/><path class="cls-33" d="M331.76,490.12c1.18-4.76,4.18-6.17,9.27-5.33C338.72,488.37,336.82,491.54,331.76,490.12Z"/><path class="cls-33" d="M405.55,484.91a7.75,7.75,0,0,1,8.34,2.22,2.31,2.31,0,0,1,.68,2.66c-.5,1-1.77.87-2.63.61A9.75,9.75,0,0,1,405.55,484.91Z"/><path class="cls-34" d="M342.49,483.93c-5.74,1.22-9.07-.36-10.87-5.87C336.79,476.9,339.35,479.94,342.49,483.93Z"/><path class="cls-40" d="M397.63,481.56a3.8,3.8,0,0,1,2.92,2.84c.23,1.23-.92,2-2.18,2.05s-2.67.28-2.64-1.8C395.76,483.22,396.12,482.13,397.63,481.56Z"/><path class="cls-33" d="M348.57,486.47c-1.54.17-1.87-.74-1.82-2.09s.56-2.85,2.07-2.68a3,3,0,0,1,2.72,2.95C351.46,486.15,350.05,486.57,348.57,486.47Z"/><path class="cls-33" d="M367.68,484.75c-.47.54-.72,1.73-1.67,1.23a4.6,4.6,0,0,1-1.91-2.15,1.72,1.72,0,0,1,1.85-1.22A2.2,2.2,0,0,1,367.68,484.75Z"/><path class="cls-33" d="M382.68,484.38c-.13,1-.82,1.89-1.45,1.68a3.67,3.67,0,0,1-2-2c-.27-.73.68-1.45,1.5-1.46C381.83,482.59,382.37,483.46,382.68,484.38Z"/><path class="cls-37" d="M356.7,484.16c-.11.55-.14,1.29-1.06,1.17s-.87-.81-.84-1.44.14-1.37,1.05-1.24S356.69,483.45,356.7,484.16Z"/><path class="cls-37" d="M344.71,483.7c0,.83,0,1.52-.87,1.63s-1-.61-1-1.25,0-1.32.85-1.44S344.51,483.34,344.71,483.7Z"/><path class="cls-37" d="M331.75,485.35c-.88-.06-1-.73-1-1.36s.08-1.35,1-1.35.95.72.95,1.35S332.62,485.29,331.75,485.35Z"/><path class="cls-37" d="M349.73,494.9c-.1.71-.1,1.44-1,1.44s-1-.72-1-1.35.08-1.34,1-1.35S349.6,494.39,349.73,494.9Z"/><path class="cls-37" d="M348.74,472.62c.82,0,.91.63.95,1.27s0,1.34-.85,1.44-1-.61-1-1.24S347.82,472.8,348.74,472.62Z"/><path class="cls-33" d="M391.48,486c-.81-1.17-1.45-1.7-1.39-2.13s.83-.75,1.29-1.12c.37.46,1,.9,1,1.37S391.91,485.19,391.48,486Z"/><path class="cls-33" d="M404.7,484c-.53.48-1,1.24-1.46,1.23s-.88-.8-1.33-1.25c.45-.44.89-1.22,1.35-1.23S404.17,483.51,404.7,484Z"/><path class="cls-57" d="M397.72,472.57c1,.25,1,.89,1,1.53s-.11,1.4-1,.72a2.87,2.87,0,0,1-.81-1.56C396.88,473.08,397.5,472.75,397.72,472.57Z"/><path class="cls-57" d="M398.68,495.32c-.11.15-.47.75-.54.72-.72-.35-1.46-.82-1.23-1.76a1.24,1.24,0,0,1,1-.63C398.72,493.74,398.74,494.45,398.68,495.32Z"/></g></g></g></g></svg>